<svg xmlns="http://www.w3.org/2000/svg" viewBox="0 0 50 50"><g id="Layer_1" data-name="Layer 1"><path d="M24.5,4.5a19.7,19.7,0,0,1,4.2.2,21.7,21.7,0,0,1,3.5.7,28.4,28.4,0,0,1,4.9,1.7,25.8,25.8,0,0,1,5.3,3.2,18.6,18.6,0,0,1,2.7,2.2l1.5,1.6a30.5,30.5,0,0,1,3.1,4,2.8,2.8,0,0,1,.3,1.3,2.8,2.8,0,0,1-1.1,2.3,2.6,2.6,0,0,1-1.6.7,2.9,2.9,0,0,1-2.2-.7,7.9,7.9,0,0,1-1.4-1.8,22.5,22.5,0,0,0-5.9-5.6,23.7,23.7,0,0,0-3.5-1.9l-1.4-.6a16.8,16.8,0,0,0-3.2-.9,34.2,34.2,0,0,0-4.5-.4,17.1,17.1,0,0,0-4.5.3,21.9,21.9,0,0,0-3.4,1A23.5,23.5,0,0,0,7,19L5.6,20.9a4.3,4.3,0,0,1-.9,1l-1.1.5a3.3,3.3,0,0,1-1.4-.1A2.5,2.5,0,0,1,.5,21a2.7,2.7,0,0,1-.3-2.6l.4-.8a35.5,35.5,0,0,1,3.5-4.4,31,31,0,0,1,6.8-5.1,35.4,35.4,0,0,1,5.3-2.3A29.3,29.3,0,0,1,24.5,4.5Z" fill="#fff"/><path d="M24.8,15.3a18,18,0,0,1,13,5.2,14,14,0,0,1,2.6,3.3,2.7,2.7,0,0,1,.2,2.5A3.3,3.3,0,0,1,39,28a3.2,3.2,0,0,1-3-.4l-.8-.9a9.1,9.1,0,0,0-1.8-2.1,11.3,11.3,0,0,0-5.9-3.1,13.3,13.3,0,0,0-2.8-.3,12.8,12.8,0,0,0-6.8,2.2,23.9,23.9,0,0,0-2.3,2.2l-1.4,1.8a3.2,3.2,0,0,1-3,.7A3.1,3.1,0,0,1,9.3,26a2.6,2.6,0,0,1,0-1.5,3.4,3.4,0,0,1,.6-1.2A17.1,17.1,0,0,1,12,20.7a14.8,14.8,0,0,1,3.1-2.5,19.2,19.2,0,0,1,3.5-1.8A18.4,18.4,0,0,1,24.8,15.3Z" fill="#fff"/><path d="M24.6,26.9a9.1,9.1,0,0,1,8,3.9,8.9,8.9,0,0,1,1.7,4.6,19.3,19.3,0,0,1-.1,2.4,9.9,9.9,0,0,1-2.9,5.3,9.5,9.5,0,0,1-4.5,2.2,8.1,8.1,0,0,1-3.1.1,7.6,7.6,0,0,1-3.3-1.1A10.4,10.4,0,0,1,17.6,42a21.5,21.5,0,0,1-1.4-2.6,9.2,9.2,0,0,1-.1-5.9A5.8,5.8,0,0,1,17.3,31a7.2,7.2,0,0,1,2.4-2.5,9.2,9.2,0,0,1,4.9-1.6m0,4.4-1.5.4a4,4,0,0,0-1.5,1,2.8,2.8,0,0,0-.8,1.1,4.6,4.6,0,0,0-.4,4.1A4.5,4.5,0,0,0,21.9,40a8.7,8.7,0,0,0,1.9,1,5.4,5.4,0,0,0,1.8,0,3.7,3.7,0,0,0,2.2-.8A5.4,5.4,0,0,0,29.9,37a6.1,6.1,0,0,0-.4-2.7,6.4,6.4,0,0,0-.8-1.4A5.2,5.2,0,0,0,24.6,31.3Z" fill="#fff"/></g></svg>