<svg xmlns="http://www.w3.org/2000/svg" viewBox="0 0 42.8 42.8"><defs><style>.cls-1{fill:#fff;}</style></defs><g id="Layer_1" data-name="Layer 1"><path class="cls-1" d="M42.8,21.4c0,4.3,0,7.2-.1,8.8-.2,3.9-1.3,6.9-3.5,9a13.4,13.4,0,0,1-9,3.5H12.6c-3.9-.2-6.9-1.3-9-3.5S.3,34.1.1,30.2C0,28.6,0,25.6,0,21.4s0-7.2.1-8.8c.2-3.9,1.3-6.9,3.5-9S8.7.3,12.6.1H30.2c3.9.2,6.9,1.3,9,3.5a13.4,13.4,0,0,1,3.5,9C42.7,14.2,42.8,17.1,42.8,21.4ZM23.5,3.8H13.7a12.3,12.3,0,0,0-2.9.3,8.3,8.3,0,0,0-2,.5A9.6,9.6,0,0,0,6.3,6.3,7.2,7.2,0,0,0,4.7,8.8a8.3,8.3,0,0,0-.5,2c-.1.8-.2,1.7-.3,2.9s-.1,2-.1,2.7v10c0,.7,0,1.6.1,2.7A12.3,12.3,0,0,0,4.2,32a19.3,19.3,0,0,0,.5,2,9.6,9.6,0,0,0,1.6,2.5,7.2,7.2,0,0,0,2.5,1.6,8.3,8.3,0,0,0,2,.5l2.9.3H29.1a12.3,12.3,0,0,0,2.9-.3l2-.5a9.6,9.6,0,0,0,2.5-1.6A7.2,7.2,0,0,0,38.1,34a8.3,8.3,0,0,0,.5-2c.1-.8.2-1.7.3-2.9s.1-2,.1-2.7v-10c0-.7,0-1.6-.1-2.7a12.3,12.3,0,0,0-.3-2.9,8.3,8.3,0,0,0-.5-2,9.6,9.6,0,0,0-1.6-2.5A7.2,7.2,0,0,0,34,4.7l-2-.5-2.9-.3H23.5Zm5.6,9.8a10.6,10.6,0,0,1,3.2,7.8,10.8,10.8,0,0,1-3.2,7.8,10.6,10.6,0,0,1-7.8,3.2,10.8,10.8,0,0,1-7.8-3.2,10.6,10.6,0,0,1-3.2-7.8,10.8,10.8,0,0,1,3.2-7.8,10.6,10.6,0,0,1,7.8-3.2A10.3,10.3,0,0,1,29.1,13.6ZM26.4,26.4a6.9,6.9,0,0,0,2.1-5,7.1,7.1,0,0,0-2.1-5.1,6.9,6.9,0,0,0-5.1-2.1,7.2,7.2,0,0,0-7.2,7.2,6.6,6.6,0,0,0,2.1,5,6.9,6.9,0,0,0,5.1,2.1A6.9,6.9,0,0,0,26.4,26.4ZM34.6,8.1a2.6,2.6,0,1,1-3.6,0,2.4,2.4,0,0,1,3.6,0Z"/></g></svg>