<svg xmlns="http://www.w3.org/2000/svg" viewBox="0 0 50 50"><g id="Layer_1" data-name="Layer 1"><path id="path4" d="M41.1,36.2A19.7,19.7,0,0,1,39,40a16.1,16.1,0,0,1-2.8,3.4A5.9,5.9,0,0,1,32.7,45a8.8,8.8,0,0,1-3.3-.8,8.5,8.5,0,0,0-7.2,0A9.9,9.9,0,0,1,19,45a5.3,5.3,0,0,1-3.6-1.6,20.3,20.3,0,0,1-2.9-3.5,24.9,24.9,0,0,1-3.1-6.1,23.6,23.6,0,0,1-1.2-7.2,12.6,12.6,0,0,1,1.7-6.9,10,10,0,0,1,8.6-5.1,11.8,11.8,0,0,1,3.8.9,11.6,11.6,0,0,0,3,.9,22,22,0,0,0,3.3-1.1,12.3,12.3,0,0,1,4.6-.8,9.8,9.8,0,0,1,7.6,4,8.7,8.7,0,0,0-1.7,14,8,8,0,0,0,2.7,1.8,10.7,10.7,0,0,1-.7,1.9ZM33.4,5.8a8.3,8.3,0,0,1-2.2,5.6A7.4,7.4,0,0,1,25,14.5v-.8A8.8,8.8,0,0,1,27.3,8a12.1,12.1,0,0,1,2.8-2.1A11.7,11.7,0,0,1,33.4,5v.8Z" fill="#fff"/></g></svg>