<svg xmlns="http://www.w3.org/2000/svg" viewBox="0 0 50 50"><g id="Layer_1" data-name="Layer 1"><path d="M8.1,23.5v3a2.7,2.7,0,0,1-2.8,2.8,2.8,2.8,0,0,1-2.8-2.8v-3a2.8,2.8,0,0,1,2.8-2.8,2.7,2.7,0,0,1,2.8,2.8Z" fill="#fff"/><path d="M41.9,23.5h0a2.7,2.7,0,0,1,2.8-2.8,2.8,2.8,0,0,1,2.8,2.8h0v3.1h0a2.8,2.8,0,0,1-5.6,0h0V23.5Z" fill="#fff"/><path d="M17.8,32.7v3A2.8,2.8,0,0,1,15,38.6a2.9,2.9,0,0,1-2.8-2.9v-3A2.8,2.8,0,0,1,15,29.9a2.7,2.7,0,0,1,2.8,2.8Zm0-18.4v10h0A2.7,2.7,0,0,1,15,27a2.8,2.8,0,0,1-2.8-2.7h0v-10A2.9,2.9,0,0,1,15,11.4,2.8,2.8,0,0,1,17.8,14.3Z" fill="#fff"/><path d="M32.2,17.3A2.7,2.7,0,0,0,35,20.1a2.8,2.8,0,0,0,2.8-2.8v-3A2.9,2.9,0,0,0,35,11.4a2.8,2.8,0,0,0-2.8,2.9Z" fill="#fff"/><path d="M22.2,8.4a2.8,2.8,0,1,0,5.6,0V5.3a2.8,2.8,0,1,0-5.6,0Zm0,33.2a2.8,2.8,0,1,1,5.6,0v3.1a2.8,2.8,0,0,1-5.6,0Z" fill="#fff"/><path d="M32.2,25.8A2.7,2.7,0,0,1,35,23a2.8,2.8,0,0,1,2.8,2.8v9.9A2.9,2.9,0,0,1,35,38.6a2.8,2.8,0,0,1-2.8-2.9Z" fill="#fff"/><path d="M27.8,16.8V33.2a2.8,2.8,0,1,1-5.6,0V16.8a2.8,2.8,0,1,1,5.6,0Z" fill="#fff"/></g></svg>