<svg xmlns="http://www.w3.org/2000/svg" viewBox="0 0 50 50"><g id="Layer_1" data-name="Layer 1"><path d="M25,4A21,21,0,1,0,46,25,21,21,0,0,0,25,4Zm9.6,30.3a1.3,1.3,0,0,1-1.8.4c-4.9-3-11.1-3.7-18.4-2a1.3,1.3,0,0,1-1.6-1,1.4,1.4,0,0,1,1-1.6c8-1.8,14.9-1,20.4,2.4A1.3,1.3,0,0,1,34.6,34.3Zm2.6-5.7a1.7,1.7,0,0,1-2.3.5c-5.6-3.5-14.2-4.5-20.9-2.4a1.7,1.7,0,0,1-2-1.1,1.6,1.6,0,0,1,1.1-2.1c7.6-2.3,17.1-1.2,23.6,2.8a1.7,1.7,0,0,1,.5,2.3Zm.2-6c-6.7-4-17.9-4.4-24.4-2.4a2,2,0,0,1-1.1-3.8c7.4-2.2,19.7-1.8,27.5,2.8a1.9,1.9,0,0,1,.7,2.7,1.9,1.9,0,0,1-2.7.7Z" fill="#fff"/></g></svg>