<?xml version="1.0" encoding="UTF-8"?>
<svg xmlns="http://www.w3.org/2000/svg" width="380.03" height="376.42" viewBox="0 0 380.03 376.42">
  <g id="Layer_1" data-name="Layer 1"/>
  <g id="Layer_2" data-name="Layer 2">
    <g>
      <path d="M201.3,18.11l2.8-9.62c3.8-13.08,23.08-10.31,23.04,3.31l-.03,10.02c-.03,11.77,15.33,16.28,21.66,6.36l5.39-8.45c7.33-11.48,25.05-3.39,21.17,9.67l-2.85,9.61c-3.35,11.28,10.12,19.93,18.99,12.2l7.56-6.58c10.27-8.95,24.99,3.81,17.59,15.24l-5.44,8.42c-6.39,9.88,4.09,21.98,14.78,17.06l9.1-4.19c12.37-5.69,22.9,10.69,12.58,19.58l-7.59,6.54c-8.91,7.68-2.26,22.24,9.38,20.53l9.92-1.45c13.47-1.98,18.96,16.71,6.56,22.33l-9.13,4.14c-10.72,4.86-8.44,20.7,3.21,22.34l9.92,1.4c13.48,1.9,13.48,21.38,0,23.28l-9.92,1.4c-11.65,1.64-13.93,17.49-3.21,22.34l9.13,4.14c12.4,5.62,6.92,24.31-6.56,22.33l-9.92-1.45c-11.64-1.71-18.29,12.85-9.38,20.53l7.59,6.54c10.32,8.89-.21,25.27-12.58,19.58l-9.1-4.19c-10.69-4.92-21.17,7.18-14.78,17.06l5.44,8.42c7.39,11.44-7.32,24.19-17.59,15.24l-7.56-6.58c-8.87-7.73-22.34,.92-18.99,12.2l2.85,9.61c3.87,13.06-13.84,21.15-21.17,9.67l-5.39-8.45c-6.33-9.92-21.69-5.41-21.66,6.36l.03,10.02c.04,13.62-19.24,16.39-23.04,3.31l-2.8-9.62c-3.28-11.3-19.29-11.3-22.57,0l-2.8,9.62c-3.8,13.08-23.08,10.31-23.04-3.31l.03-10.02c.03-11.77-15.33-16.28-21.66-6.36l-5.39,8.45c-7.33,11.48-25.05,3.39-21.17-9.67l2.85-9.61c3.35-11.28-10.12-19.93-18.99-12.2l-7.56,6.58c-10.27,8.95-24.99-3.81-17.59-15.24l5.44-8.42c6.39-9.88-4.09-21.98-14.78-17.06l-9.1,4.19c-12.37,5.69-22.9-10.69-12.58-19.58l7.59-6.54c8.91-7.68,2.26-22.24-9.38-20.53l-9.92,1.45c-13.47,1.98-18.96-16.71-6.56-22.33l9.13-4.14c10.72-4.86,8.44-20.7-3.21-22.34l-9.92-1.4c-13.48-1.9-13.48-21.38,0-23.28l9.92-1.4c11.65-1.64,13.93-17.49,3.21-22.34l-9.13-4.14c-12.4-5.62-6.92-24.31,6.56-22.33l9.92,1.45c11.64,1.71,18.29-12.85,9.38-20.53l-7.59-6.54c-10.32-8.89,.21-25.27,12.58-19.58l9.1,4.19c10.69,4.92,21.17-7.18,14.78-17.06l-5.44-8.42c-7.39-11.44,7.32-24.19,17.59-15.24l7.56,6.58c8.87,7.73,22.34-.92,18.99-12.2l-2.85-9.61c-3.87-13.06,13.84-21.15,21.17-9.67l5.39,8.45c6.33,9.92,21.69,5.41,21.66-6.36l-.03-10.02c-.04-13.62,19.24-16.39,23.04-3.31l2.8,9.62c3.28,11.3,19.29,11.3,22.57,0Z" fill="#fff"/>
      <g>
        <path d="M94.22,155.54h-6.37v-.88h1.22v-32.53h-1.22v-.88h5.14v33.42h1.22v.88Zm-3.18-.88v-32.53h-.98v32.53h.98Z" fill="#2d7687"/>
        <path d="M108.13,150.78c0,2.74-2.65,5-5.88,5s-5.88-2.25-5.88-5v-24.79c0-2.74,2.65-5,5.88-5s5.88,2.25,5.88,5v24.79Zm-9.16,3.28c-.54-.78-.64-1.42-.64-2.35v-26.65c0-.93,.1-1.57,.64-2.35-.93,.64-1.62,1.57-1.62,2.94v25.48c0,1.37,.69,2.3,1.62,2.94Zm5.24-1.13v-29.1c0-1.08-.88-1.96-1.96-1.96s-1.96,.88-1.96,1.96v29.1c0,1.08,.88,1.96,1.96,1.96s1.96-.88,1.96-1.96Zm1.96-1.37v-26.36c0-1.42-.69-2.4-1.76-3.09,.64,.73,.78,1.47,.78,2.4v27.73c0,.93-.15,1.67-.78,2.4,1.08-.69,1.76-1.67,1.76-3.09Z" fill="#2d7687"/>
        <path d="M120.13,136.87c0,2.3-1.96,4.21-4.7,4.21s-4.7-1.91-4.7-4.21v-11.66c0-2.3,1.96-4.21,4.7-4.21s4.7,1.91,4.7,4.21v11.66Zm-7.2,2.84c-.44-.69-.49-1.37-.49-2.06v-13.23c0-.69,.05-1.37,.49-2.06-.83,.64-1.32,1.47-1.32,2.45v12.45c0,.98,.49,1.81,1.32,2.45Zm3.82-1.08v-15.19c0-.88-.44-1.57-1.32-1.57s-1.32,.69-1.32,1.57v15.19c0,.88,.44,1.57,1.32,1.57s1.32-.69,1.32-1.57Zm11.66-17.39l-12.74,34.3h-1.13l12.74-34.3h1.13Zm-9.95,16.61v-13.62c0-.98-.49-1.71-1.37-2.2,.49,.64,.54,1.13,.54,1.81v14.4c0,.69-.05,1.18-.54,1.81,.88-.49,1.37-1.22,1.37-2.2Zm13.77,13.72c0,2.3-1.96,4.21-4.7,4.21s-4.7-1.91-4.7-4.21v-11.66c0-2.3,1.96-4.21,4.7-4.21s4.7,1.91,4.7,4.21v11.66Zm-7.2,2.84c-.44-.69-.49-1.37-.49-2.06v-13.23c0-.69,.05-1.37,.49-2.06-.83,.64-1.32,1.47-1.32,2.45v12.44c0,.98,.49,1.81,1.32,2.45Zm3.82-1.08v-15.19c0-.88-.44-1.57-1.32-1.57s-1.32,.69-1.32,1.57v15.19c0,.88,.44,1.57,1.32,1.57s1.32-.69,1.32-1.57Zm1.71-.78v-13.62c0-.98-.49-1.71-1.37-2.2,.49,.64,.54,1.13,.54,1.81v14.4c0,.69-.05,1.18-.54,1.81,.88-.49,1.37-1.22,1.37-2.2Z" fill="#2d7687"/>
        <path d="M153.01,150.78c0,2.74-2.3,5-5.54,5s-5.54-2.25-5.54-5v-15.97c0-2.74,2.3-5,5.54-5s5.54,2.25,5.54,5v15.97Zm-8.53,3.38c-.54-.78-.64-1.52-.64-2.45v-17.83c0-.93,.1-1.67,.64-2.45-.93,.64-1.62,1.67-1.62,3.04v16.66c0,1.37,.69,2.4,1.62,3.04Zm4.7-1.22v-20.28c0-1.08-.64-1.96-1.71-1.96s-1.71,.88-1.71,1.96v20.28c0,1.08,.64,1.96,1.71,1.96s1.71-.88,1.71-1.96Zm1.91-1.37v-17.54c0-1.52-.69-2.45-1.76-3.14,.64,.69,.78,1.52,.78,2.45v18.91c0,.93-.15,1.76-.78,2.45,1.08-.69,1.76-1.62,1.76-3.14Z" fill="#2d7687"/>
        <path d="M170.59,122.12h-1.22c-1.08,0-1.71,.88-1.71,1.96v5.98h1.96v.88h-1.96v23.71h1.22v.88h-6.27v-.88h1.23v-23.71h-4.07v23.71h1.23v.88h-6.27v-.88h1.22v-23.71h-1.22v-.88h1.22v-3.82c0-2.74,2.3-5,5.54-5h1.23v.88h-1.23c-1.08,0-1.71,.88-1.71,1.96v5.98h4.07v-3.82c0-2.74,2.3-5,5.54-5h1.22v.88Zm-12.1,.73c-.93,.64-1.62,1.67-1.62,3.04v28.76h.98v-29.35c0-.93,.1-1.67,.64-2.45Zm7.89,0c-.93,.64-1.62,1.67-1.62,3.04v28.76h.98v-29.35c0-.93,.1-1.67,.64-2.45Z" fill="#2d7687"/>
        <path d="M194.94,130.94h-1.23l-2.25,24.6h-3.72l-1.67-18.57-1.22,18.57h-3.72l-2.25-24.6h-1.22v-.88h6.22v.88h-1.23l1.37,19.3,1.37-20.19h3.63l1.71,20.19,1.62-19.3h-1.22v-.88h3.82v.88Zm-12,23.71l-2.16-23.71h-.93l2.16,23.71h.93Zm6.62,0l-2.16-23.71h-.93l2.16,23.71h.93Z" fill="#2d7687"/>
        <path d="M202.09,155.54h-6.27v-.88h1.23v-23.71h-1.23v-.88h5.05v24.6h1.22v.88Zm-1.22-28.42h-3.82v-5.88h3.82v5.88Zm-1.91-.88v-4.12h-.98v4.12h.98Zm0,28.42v-23.71h-.98v23.71h.98Z" fill="#2d7687"/>
        <path d="M211.01,155.54h-1.22c-3.23,0-5.54-2.25-5.54-5v-19.6h-1.23v-.88h1.23v-7.1l3.82-1.71v8.82h2.74v.88h-2.74v21.75c0,1.08,.64,1.96,1.71,1.96h1.22v.88Zm-4.21-1.62c-.54-.78-.64-1.52-.64-2.45v-28.37l-.98,.44v27.34c0,1.37,.69,2.4,1.62,3.04Z" fill="#2d7687"/>
        <path d="M225.17,155.54h-5.05v-22.88c0-1.08-.34-1.86-1.42-1.86-.69,0-1.22,.29-1.76,.83v23.03h1.22v.88h-6.27v-.88h1.23v-32.53h-1.23v-.88h5.05v9.51c.74-.64,1.71-.93,2.84-.93,2.74,0,4.17,1.57,4.17,4.51v20.33h1.22v.88Zm-10.14-.88v-32.53h-.98v32.53h.98Zm7.01,0v-21.17c0-1.62-.69-2.35-1.67-2.74,.54,.54,.69,1.27,.69,2.3v21.61h.98Z" fill="#2d7687"/>
        <path d="M245.06,150.78c0,2.74-2.3,5-5.54,5s-5.54-2.25-5.54-5v-15.97c0-2.74,2.3-5,5.54-5s5.54,2.25,5.54,5v3.04h-3.82v-5.19c0-1.08-.64-1.96-1.71-1.96s-1.71,.88-1.71,1.96v20.28c0,1.08,.64,1.96,1.71,1.96s1.71-.88,1.71-1.96v-5.19h3.82v3.04Zm-8.53,3.38c-.54-.78-.64-1.52-.64-2.45v-17.83c0-.93,.1-1.67,.64-2.45-.93,.64-1.62,1.67-1.62,3.04v16.66c0,1.37,.69,2.4,1.62,3.04Zm6.61-17.2v-2.94c0-1.52-.69-2.45-1.76-3.14,.64,.69,.78,1.52,.78,2.45v3.63h.98Zm0,14.6v-2.94h-.98v3.63c0,.93-.15,1.76-.78,2.45,1.08-.69,1.76-1.62,1.76-3.14Z" fill="#2d7687"/>
        <path d="M258.43,150.78c0,2.74-2.3,5-5.54,5s-5.54-2.25-5.54-5v-15.97c0-2.74,2.3-5,5.54-5s5.54,2.25,5.54,5v15.97Zm-8.53,3.38c-.54-.78-.64-1.52-.64-2.45v-17.83c0-.93,.1-1.67,.64-2.45-.93,.64-1.62,1.67-1.62,3.04v16.66c0,1.37,.69,2.4,1.62,3.04Zm4.7-1.22v-20.28c0-1.08-.64-1.96-1.71-1.96s-1.71,.88-1.71,1.96v20.28c0,1.08,.64,1.96,1.71,1.96s1.71-.88,1.71-1.96Zm1.91-1.37v-17.54c0-1.52-.69-2.45-1.76-3.14,.64,.69,.78,1.52,.78,2.45v18.91c0,.93-.15,1.76-.78,2.45,1.08-.69,1.76-1.62,1.76-3.14Z" fill="#2d7687"/>
        <path d="M272.98,155.54h-5.05v-.69c-.74,.64-1.71,.93-2.84,.93-2.74,0-4.17-1.57-4.17-4.51v-16.95c0-2.94,1.42-4.51,4.17-4.51,1.13,0,2.11,.29,2.84,.93v-8.62h-1.22v-.88h5.05v33.42h1.23v.88Zm-9.21-.64c-.54-.54-.93-1.57-.93-2.6v-19.01c0-1.03,.39-2.06,.93-2.6-1.08,.29-1.91,1.42-1.91,3.14v17.93c0,1.71,.83,2.84,1.91,3.14Zm4.17-.93v-22.34c-.54-.54-1.08-.83-1.76-.83-1.08,0-1.42,.78-1.42,1.86v20.28c0,1.08,.34,1.86,1.42,1.86,.69,0,1.22-.29,1.76-.83Zm1.91,.69v-32.53h-.98v32.53h.98Z" fill="#2d7687"/>
        <path d="M285.67,150.78c0,2.74-2.3,5-5.54,5s-5.54-2.25-5.54-5v-15.97c0-2.74,2.3-5,5.54-5s5.54,2.25,5.54,5v8.38h-7.25v9.75c0,1.08,.64,1.96,1.71,1.96s1.71-.88,1.71-1.96v-5.19h3.82v3.04Zm-8.53,3.38c-.54-.78-.64-1.52-.64-2.45v-17.83c0-.93,.1-1.67,.64-2.45-.93,.64-1.62,1.67-1.62,3.04v16.66c0,1.37,.69,2.4,1.62,3.04Zm4.7-11.86v-9.65c0-1.08-.64-1.96-1.71-1.96s-1.71,.88-1.71,1.96v9.65h3.43Zm1.91,0v-8.28c0-1.52-.69-2.45-1.76-3.14,.64,.69,.78,1.52,.78,2.45v8.97h.98Zm0,9.26v-2.94h-.98v3.63c0,.93-.15,1.76-.78,2.45,1.08-.69,1.76-1.62,1.76-3.14Z" fill="#2d7687"/>
        <path d="M291.84,142.85h-3.77v-5.88h3.77v5.88Zm0,12.69h-3.77v-5.88h3.77v5.88Zm-1.81-13.47v-4.31h-.98v4.31h.98Zm0,12.69v-4.31h-.98v4.31h.98Z" fill="#2d7687"/>
        <path d="M93.31,232.78c0,5.69-5.48,10.36-12.18,10.36s-12.18-4.67-12.18-10.36v-51.38c0-5.69,5.48-10.36,12.18-10.36s12.18,4.67,12.18,10.36v11.47h-8.12v-15.94c0-2.23-1.83-4.06-4.06-4.06s-4.06,1.83-4.06,4.06v60.31c0,2.23,1.83,4.06,4.06,4.06s4.06-1.83,4.06-4.06v-15.94h8.12v11.47Zm-18.99,6.8c-1.12-1.62-1.32-2.94-1.32-4.87v-55.23c0-1.93,.2-3.25,1.32-4.87-1.93,1.32-3.35,3.25-3.35,6.09v52.8c0,2.84,1.42,4.77,3.35,6.09Zm14.93-48.53v-11.27c0-2.94-1.42-4.98-3.66-6.4,1.32,1.52,1.62,3.05,1.62,4.98v12.69h2.03Zm0,43.35v-11.27h-2.03v12.69c0,1.93-.3,3.45-1.62,4.98,2.23-1.42,3.66-3.45,3.66-6.4Z" fill="#2d7687"/>
        <path d="M126.81,173.39h-2.54v59.4c0,5.69-5.48,10.36-12.18,10.36s-12.18-4.67-12.18-10.36v-59.4h-2.54v-1.83h13.2v1.83h-2.54v63.86c0,2.23,1.83,4.06,4.06,4.06s4.06-1.83,4.06-4.06v-63.86h-2.54v-1.83h13.2v1.83Zm-21.53,66.2c-1.12-1.62-1.32-2.94-1.32-4.87v-61.33h-2.03v60.11c0,2.84,1.42,4.77,3.35,6.09Zm14.93-5.18v-61.02h-2.03v62.44c0,1.93-.3,3.45-1.62,4.98,2.23-1.42,3.66-3.45,3.66-6.4Z" fill="#2d7687"/>
        <path d="M158.29,242.63h-3.55c-4.57,0-7.11-2.23-7.11-7.41v-25.18c0-2.23-1.83-4.06-4.06-4.06h-3.55v34.83h2.54v1.83h-13.2v-1.83h2.54v-67.42h-2.54v-1.83h14.21c6.7,0,12.18,4.67,12.18,10.36v13.71c0,4.16-2.94,7.82-7.11,9.44,4.16,1.73,7.11,5.28,7.11,9.44v23.56c0,1.93,.51,2.74,2.34,2.74h.2v1.83Zm-22.34-1.83v-67.42h-2.03v67.42h2.03Zm11.68-40.71v-22.64c0-2.23-1.83-4.06-4.06-4.06h-3.55v30.76h3.55c2.23,0,4.06-1.83,4.06-4.06Zm4.06-2.84v-16.96c0-2.94-1.42-4.98-3.66-6.4,1.32,1.52,1.62,3.05,1.62,4.98v19.8c0,1.93-.3,3.45-1.62,4.98,2.23-1.42,3.66-3.45,3.66-6.4Zm2.03,44.06c-1.42-.81-2.03-1.93-2.03-4.37v-24.06c0-2.94-1.42-4.98-3.66-6.4,1.32,1.52,1.62,3.05,1.62,4.98v24.57c0,3.45,1.73,4.87,4.06,5.28Z" fill="#2d7687"/>
        <path d="M174.23,242.63h-13.2v-1.83h2.54v-67.42h-2.54v-1.83h13.2v1.83h-2.54v67.42h2.54v1.83Zm-6.6-1.83v-67.42h-2.03v67.42h2.03Z" fill="#2d7687"/>
        <path d="M203.37,232.78c0,5.69-5.48,10.36-12.18,10.36s-12.18-4.67-12.18-10.36v-51.38c0-5.69,5.48-10.36,12.18-10.36s12.18,4.67,12.18,10.36v51.38Zm-18.99,6.8c-1.12-1.62-1.32-2.94-1.32-4.87v-55.23c0-1.93,.2-3.25,1.32-4.87-1.93,1.32-3.35,3.25-3.35,6.09v52.8c0,2.84,1.42,4.77,3.35,6.09Zm10.86-2.34v-60.31c0-2.23-1.83-4.06-4.06-4.06s-4.06,1.83-4.06,4.06v60.31c0,2.23,1.83,4.06,4.06,4.06s4.06-1.83,4.06-4.06Zm4.06-2.84v-54.62c0-2.94-1.42-4.98-3.66-6.4,1.32,1.52,1.62,3.05,1.62,4.98v57.47c0,1.93-.3,3.45-1.62,4.98,2.23-1.42,3.66-3.45,3.66-6.4Z" fill="#2d7687"/>
        <path d="M232.41,232.78c0,5.69-4.97,10.36-11.68,10.36s-11.68-4.67-11.68-10.36v-11.47h8.12v15.94c0,2.23,1.32,4.06,3.55,4.06s3.55-1.83,3.55-4.06v-12.39c0-3.66-.51-5.79-2.44-8.83l-10.15-15.84c-1.93-3.05-2.64-5.69-2.64-9.14v-9.65c0-5.69,4.98-10.36,11.68-10.36s11.68,4.67,11.68,10.36v11.47h-8.12v-15.94c0-2.23-1.32-4.06-3.55-4.06s-3.55,1.83-3.55,4.06v11.88c0,3.66,.51,5.79,2.44,8.83l10.15,15.84c1.93,3.05,2.64,5.69,2.64,9.14v10.15Zm-4.06,1.62v-10.66c0-3.35-.61-5.99-2.54-9.04l-10.15-15.74c-1.93-3.05-2.54-5.58-2.54-9.04v-10.46c0-1.93,.2-3.25,1.32-4.87-1.93,1.32-3.35,3.25-3.35,6.09v9.75c0,3.35,.61,5.99,2.54,9.04l10.15,15.74c1.93,3.05,2.54,5.58,2.54,9.04v11.57c0,1.93-.3,3.45-1.62,4.98,2.23-1.42,3.66-3.45,3.66-6.4Zm-13.91,5.18c-1.12-1.62-1.32-2.94-1.32-4.87v-11.57h-2.03v10.36c0,2.84,1.42,4.77,3.35,6.09Zm13.91-48.53v-11.27c0-2.94-1.42-4.98-3.66-6.4,1.32,1.52,1.62,3.05,1.62,4.98v12.69h2.03Z" fill="#2d7687"/>
        <path d="M249.97,242.63h-13.2v-1.83h2.54v-67.42h-2.54v-1.83h13.2v1.83h-2.54v67.42h2.54v1.83Zm-6.6-1.83v-67.42h-2.03v67.42h2.03Z" fill="#2d7687"/>
        <path d="M283.68,192.88h-7.51v-19.49h-3.65v67.42h2.54v1.83h-13.2v-1.83h2.54v-67.42h-3.66v19.49h-7.51v-21.32h30.46v21.32Zm-26.4-1.83v-17.67h-2.03v17.67h2.03Zm11.17,49.75v-67.42h-2.03v67.42h2.03Zm11.78-49.75v-17.67h-2.03v17.67h2.03Z" fill="#2d7687"/>
        <path d="M313.63,173.39h-2.54l-7.62,40.51v26.91h2.54v1.83h-13.2v-1.83h2.54v-26.91l-7.11-40.51h-2.54v-1.83h13v1.83h-2.54l5.99,35.33,6.5-35.33h-2.54v-1.83h7.51v1.83Zm-14.21,67.42v-27.72l-7.11-39.7h-2.03l7.11,39.7v27.72h2.03Z" fill="#2d7687"/>
      </g>
    </g>
  </g>
</svg>