<?xml version="1.0" encoding="UTF-8"?>
<svg id="Layer_1" data-name="Layer 1" xmlns="http://www.w3.org/2000/svg" viewBox="0 0 379.03 394.33">
  <g>
    <path d="M43.98,280.32c.02,5.59-2.08,11.61-6.32,18.07-4.23,6.45-9.36,11.42-15.39,14.9-5.96,3.45-11.09,4.41-15.39,2.88-4.3-1.52-6.46-5.08-6.48-10.67L0,204.47c-.02-5.59,2.1-11.62,6.36-18.09,4.26-6.47,9.38-11.43,15.34-14.88,6.02-3.48,11.17-4.45,15.43-2.91,4.27,1.54,6.41,5.11,6.44,10.7l.09,22.53-14.52,8.39-.13-31.3c0-2.21-.72-3.69-2.15-4.43-1.42-.74-3.14-.53-5.15.63-2.01,1.16-3.72,2.93-5.13,5.31-1.41,2.38-2.11,4.67-2.1,6.88l.48,118.58c0,2.21.73,3.69,2.15,4.43,1.42.74,3.14.53,5.15-.63,2.01-1.16,3.72-2.93,5.13-5.31,1.41-2.38,2.11-4.67,2.1-6.88l-.13-31.3,14.52-8.39.09,22.53ZM10.11,313.38c-1.6-1.62-2.41-4.37-2.43-8.27l-.44-108.63c-.02-3.84.77-7.48,2.35-10.94-4,5.31-5.99,10.47-5.97,15.47l.42,103.86c.02,4.94,2.04,7.78,6.07,8.52ZM36.39,202.5l-.09-22.23c-.02-5.33-2.22-8.26-6.6-8.79,1.96,1.35,2.95,4.06,2.96,8.16l.1,24.96,3.63-2.1ZM36.73,287.74l-.09-22.14-3.63,2.1.1,24.96c.02,4.03-.95,7.84-2.88,11.44,4.36-5.58,6.52-11.04,6.5-16.37Z" style="fill: #fff; stroke-width: 0px;"/>
    <path d="M99.5,267.69l-18.69,10.8v-2.83c-2.66,4.07-6.14,7.35-10.45,9.84-10.33,5.97-15.52,2.85-15.57-9.38l-.33-82.89-4.52,2.61v-3.61s18.67-10.8,18.67-10.8l.37,93.23c.02,5.07,1.8,6.58,5.34,4.53,2.24-1.3,4.39-3.68,6.45-7.15l-.38-93.81-4.52,2.61v-3.61s18.67-10.8,18.67-10.8l.4,100.25,4.52-2.61v3.61ZM65.39,284.76c-2.31-1.2-3.48-4.05-3.5-8.54l-.35-87.08-3.63,2.1.34,84.84c.03,7.15,2.41,10.04,7.14,8.68ZM87.88,270.78l-.39-96.64-3.63,2.1.39,96.64,3.63-2.1Z" style="fill: #fff; stroke-width: 0px;"/>
    <path d="M145.35,168.96l-14.17,8.19-.08-21.16c-.02-5.07-1.48-6.77-4.37-5.1-1.89,1.09-3.77,3.32-5.65,6.69l.38,93.81,4.61-2.66v3.61s-23.28,13.46-23.28,13.46v-3.61s4.59-2.66,4.59-2.66l-.39-96.64-4.6,2.66v-3.61s18.67-10.8,18.67-10.8v2.83c2.66-4.07,5.99-7.27,10-9.59,9.45-5.46,14.19-2.08,14.24,10.14l.06,14.43ZM114.45,255.43l-.39-96.64-3.63,2.1.39,96.64,3.63-2.1ZM138.25,169.44l-.06-14.24c-.02-5.59-1.98-8.1-5.89-7.54,1.48.71,2.23,3.34,2.25,7.89l.06,15.99,3.63-2.1Z" style="fill: #fff; stroke-width: 0px;"/>
    <path d="M173.97,224.64l-23.2,13.41v-3.61s4.5-2.61,4.5-2.61l-.39-96.64-4.52,2.61v-3.61s18.67-10.8,18.67-10.8l.4,100.25,4.52-2.61v3.61ZM168.99,111.4l-14.17,8.19-.1-23.99,14.17-8.19.1,23.99ZM161.89,111.89l-.07-16.77-3.63,2.1.07,16.77,3.63-2.1ZM162.36,227.74l-.39-96.64-3.63,2.1.39,96.64,3.63-2.1Z" style="fill: #fff; stroke-width: 0px;"/>
    <path d="M221.37,177.81c.02,5.72-1.89,11.67-5.74,17.83-3.85,6.17-8.73,10.96-14.63,14.37-5.91,3.41-10.81,4.28-14.73,2.6-3.91-1.68-5.88-5.38-5.9-11.1l-.26-65.04c-.02-5.72,1.91-11.67,5.79-17.86,3.88-6.18,8.77-10.98,14.68-14.4,5.9-3.41,10.8-4.27,14.68-2.57,3.88,1.7,5.84,5.41,5.86,11.13l.26,65.04ZM189.89,209.87c-1.6-1.61-2.42-4.5-2.43-8.66l-.29-72.65c-.02-4.16.77-7.97,2.35-11.43-4,5.38-5.99,10.66-5.97,15.86l.27,67.97c.02,5.2,2.04,8.17,6.07,8.9ZM207.23,194.77l-.33-82.6c-.02-5.33-2.13-6.79-6.32-4.36-4.25,2.46-6.37,6.35-6.34,11.68l.33,82.6c.02,5.33,2.16,6.77,6.41,4.31,4.19-2.42,6.28-6.3,6.26-11.63ZM214.29,185.12l-.29-71.48c-.02-5.46-2.23-8.46-6.6-8.99,1.96,1.15,2.94,3.9,2.96,8.26l.31,77.14c.02,4.36-.94,8.23-2.88,11.63,4.36-5.58,6.52-11.1,6.5-16.56Z" style="fill: #fff; stroke-width: 0px;"/>
    <path d="M269.19,150.17c.02,5.79-1.7,11.6-5.17,17.45-3.7,6.12-8.48,10.86-14.32,14.24-5.85,3.38-10.64,4.18-14.37,2.39-3.74-1.78-5.61-5.54-5.64-11.26l-.05-12.38,14.17-8.19.08,21.16c.02,5.33,1.95,6.89,5.79,4.67,3.66-2.11,5.48-5.84,5.46-11.17l-.06-15.31c-.03-6.44-1.7-10.49-5.02-12.15l-14.94-7.59c-3.74-1.88-5.62-6.72-5.65-14.52l-.04-9.56c-.02-5.79,1.76-11.67,5.34-17.65,3.58-5.98,8.3-10.66,14.15-14.04,5.85-3.38,10.58-4.16,14.19-2.34,3.62,1.82,5.44,5.62,5.46,11.41l.05,12.38-14.08,8.14-.08-21.16c-.02-5.33-1.86-6.94-5.52-4.82-3.6,2.08-5.39,5.79-5.37,11.12l.06,13.75c.03,6.44,1.67,10.47,4.93,12.1l14.94,7.59c3.74,1.95,5.62,6.82,5.65,14.62l.04,11.12ZM262.2,157.43l-.05-11.8c-.03-7.28-1.76-11.82-5.2-13.61l-15.66-8.16c-3.14-1.64-4.73-6.06-4.76-13.28l-.04-10.53c-.02-4.16.77-7.97,2.35-11.43-4,5.38-5.99,10.66-5.97,15.86l.04,9.65c.03,7.28,1.73,11.84,5.11,13.66l15.66,8.16c3.2,1.6,4.82,6.01,4.85,13.23l.05,13.17c.02,4.16-.94,8.04-2.88,11.64,4.36-5.58,6.52-11.1,6.5-16.56ZM239.22,181.37c-1.6-1.61-2.42-4.5-2.43-8.66l-.05-12.58-3.63,2.1.04,10.24c.02,5.2,2.04,8.17,6.07,8.9ZM261.61,98.15l-.05-12c-.02-5.46-2.22-8.46-6.6-8.99,1.96,1.35,2.95,4.1,2.96,8.26l.06,14.82,3.63-2.1Z" style="fill: #fff; stroke-width: 0px;"/>
    <path d="M298.67,152.58l-23.2,13.41v-3.61s4.5-2.61,4.5-2.61l-.39-96.64-4.52,2.61v-3.61s18.67-10.8,18.67-10.8l.4,100.25,4.52-2.61v3.61ZM293.69,39.34l-14.17,8.19-.1-23.99,14.17-8.19.1,23.99ZM286.59,39.83l-.07-16.77-3.63,2.1.07,16.77,3.63-2.1ZM287.05,155.68l-.39-96.64-3.63,2.1.39,96.64,3.63-2.1Z" style="fill: #fff; stroke-width: 0px;"/>
    <path d="M331.61,133.54l-4.52,2.61c-5.9,3.41-10.8,4.25-14.68,2.52-3.88-1.73-5.84-5.42-5.86-11.08l-.32-79.87-4.6,2.66v-3.61s4.59-2.66,4.59-2.66l-.12-28.96,14.05-15.16.14,35.98,10.18-5.89v3.61s-10.17,5.89-10.17,5.89l.36,88.64c.02,5.33,2.16,6.77,6.41,4.31l4.52-2.61v3.61ZM316,135.92c-1.6-1.55-2.41-4.4-2.43-8.57l-.46-115.65-3.62,3.95.45,111.36c.02,5.27,2.04,8.23,6.07,8.9Z" style="fill: #fff; stroke-width: 0px;"/>
    <path d="M379.03,153.74c.02,5.72-1.79,11.61-5.43,17.65-3.65,6.05-8.39,10.76-14.23,14.14-5.49,3.17-10.27,3.93-14.33,2.27-4.06-1.66-6.1-5.29-6.12-10.88v-3.61s14.16-8.19,14.16-8.19l.05,12.38c.02,5.33,2.1,6.8,6.23,4.41,3.72-2.15,5.57-5.89,5.55-11.22l-.09-61.14c-2.65,4.07-6.13,7.35-10.43,9.84-10.33,5.97-15.52,2.81-15.57-9.47l-.32-80.84-4.52,2.61v-3.61s18.67-10.8,18.67-10.8l.37,91.28c.02,5.07,1.8,6.58,5.34,4.54,2.24-1.3,4.39-3.68,6.45-7.15l-.37-91.86-4.52,2.61v-3.61s18.67-10.8,18.67-10.8l.45,151.44ZM349.39,118.67c-2.31-1.21-3.48-4.08-3.5-8.63l-.34-85.03-3.63,2.1.33,82.89c.03,7.09,2.41,9.98,7.14,8.68ZM348.44,185.2c-1.6-1.55-2.41-4.41-2.43-8.56l-.02-3.8-3.63,2.1v1.37c.03,5.27,2.05,8.23,6.08,8.9ZM371.96,161.06l-.45-151.05-3.63,2.1.46,153.87c.02,4.29-.89,8.13-2.71,11.53,4.24-5.45,6.35-10.94,6.33-16.46Z" style="fill: #fff; stroke-width: 0px;"/>
  </g>
  <g>
    <path d="M75.74,87.9l-8.85,5.11v-29.48l-4.34,2.51v102.01l2.99-1.73v2.78l-15.6,9.01v-2.78l2.99-1.73v-102.01l-4.34,2.51v29.48l-8.85,5.11v-32.25l36-20.79v32.25ZM44.54,103.21v-26.78l-2.4,1.39v26.78l2.4-1.39ZM57.74,170.82v-102.01l-2.4,1.39v102.01l2.4-1.39ZM71.63,87.57v-26.78l-2.35,1.35v26.78l2.35-1.35Z" style="fill: #fff; stroke-width: 0px;"/>
    <path d="M111.04,142.82l-12.37,7.14v-71.71c0-3.9-1.15-5.18-3.46-3.85-1.52.88-2.97,2.59-4.34,5.13v72.16l3.05-1.76v2.78l-15.42,8.9v-2.78l3.05-1.76V55.07l-3.05,1.76v-2.78l12.37-7.14v29.85c1.76-2.97,4.08-5.28,6.98-6.95,6.8-3.93,10.2-1.19,10.2,8.21v63.75l2.99-1.73v2.78ZM86.17,154.4V52.39l-2.4,1.39v102.01l2.4-1.39ZM103.36,144.48v-66.38c0-4.3-1.35-6.37-4.05-6.21,1.09.77,1.64,2.85,1.64,6.25v67.73l2.4-1.39Z" style="fill: #fff; stroke-width: 0px;"/>
    <path d="M141.83,110.12c0,4.4-1.28,8.85-3.84,13.36-2.56,4.5-5.8,7.88-9.71,10.14-3.91,2.26-7.15,2.62-9.73,1.08-2.58-1.54-3.87-4.5-3.87-8.9v-50.03c0-4.4,1.29-8.86,3.87-13.37,2.58-4.51,5.83-7.9,9.73-10.16,3.91-2.26,7.14-2.61,9.71-1.06,2.56,1.55,3.84,4.52,3.84,8.92v26.25l-17.77,10.26v30.53c0,4.1,1.41,5.34,4.22,3.71,2.78-1.6,4.16-4.45,4.16-8.55v-16.28l9.38-5.42v9.53ZM120.95,132.82c-1.06-1.34-1.58-3.61-1.58-6.81v-55.88c0-3.2.53-6.08,1.58-8.64-2.66,3.89-3.99,7.83-3.99,11.83v52.28c0,4,1.33,6.41,3.99,7.22ZM132.44,88.99v-30.23c0-4.1-1.39-5.35-4.16-3.75-2.81,1.62-4.22,4.49-4.22,8.59v30.23l8.39-4.84ZM137.13,86.28v-25.95c0-4.2-1.45-6.64-4.34-7.32,1.29,1.01,1.94,3.18,1.94,6.53v28.13l2.4-1.39ZM137.13,115.3v-9.23l-2.4,1.39v11.4c0,3.35-.65,6.27-1.94,8.77,2.89-4.02,4.34-8.13,4.34-12.33Z" style="fill: #fff; stroke-width: 0px;"/>
  </g>
  <g>
    <path d="M164.79,337.15c0,4.25-1.24,8.55-3.71,12.9-2.47,4.35-5.6,7.62-9.37,9.8-3.78,2.18-6.91,2.53-9.4,1.04-2.49-1.48-3.74-4.35-3.74-8.6v-48.33c0-4.25,1.25-8.55,3.74-12.92,2.49-4.36,5.63-7.63,9.4-9.81,3.78-2.18,6.9-2.52,9.37-1.03,2.47,1.5,3.71,4.37,3.71,8.62v48.33ZM144.62,359.08c-1.02-1.29-1.53-3.49-1.53-6.58v-53.98c0-3.09.51-5.87,1.53-8.35-2.57,3.75-3.85,7.56-3.85,11.43v50.5c0,3.87,1.28,6.19,3.85,6.98ZM155.72,348.91v-61.37c0-3.96-1.34-5.17-4.02-3.62-2.72,1.57-4.08,4.33-4.08,8.29v61.37c0,3.96,1.36,5.16,4.08,3.59,2.68-1.55,4.02-4.3,4.02-8.26ZM160.25,342.16v-53.11c0-4.06-1.4-6.41-4.19-7.07,1.25.97,1.87,3.08,1.87,6.31v57.31c0,3.24-.62,6.06-1.87,8.47,2.79-3.88,4.19-7.85,4.19-11.91Z" style="fill: #fff; stroke-width: 0px;"/>
    <path d="M188.07,236.92l-2.89,1.67c-2.68,1.55-4.02,4.3-4.02,8.26v18.11l4.59-2.65v2.68l-4.59,2.65v71.8l2.89-1.67v2.68l-14.84,8.57v-2.68l2.89-1.67v-71.8l-2.89,1.67v-2.68l2.89-1.67v-11.59c0-4.2,1.24-8.49,3.71-12.87,2.47-4.37,5.6-7.65,9.37-9.83l2.89-1.67v2.68ZM178.1,244.92c-2.53,3.68-3.79,7.48-3.79,11.39v87.09l2.32-1.34v-88.9c0-3.04.49-5.79,1.47-8.24Z" style="fill: #fff; stroke-width: 0px;"/>
  </g>
  <polygon points="219.74 216.29 219.74 222.73 353.37 144.88 353.37 136.27 216.02 216.29 219.74 216.29" style="fill: none; stroke-width: 0px;"/>
  <polygon points=".03 350.75 158.34 258.51 158.34 249.9 .03 342.13 .03 350.75" style="fill: none; stroke-width: 0px;"/>
  <polygon points="353.37 136.27 353.37 132.44 211.94 214.84 216.02 216.29 353.37 136.27" style="fill: #fff; stroke-width: 0px;"/>
  <polygon points="158.34 249.9 158.34 246.08 .03 338.31 .03 342.13 158.34 249.9" style="fill: #fff; stroke-width: 0px;"/>
  <polygon points=".03 349.3 .03 353.12 158.34 260.89 158.34 257.07 .03 349.3" style="fill: #fff; stroke-width: 0px;"/>
  <polygon points="219.74 221.29 219.74 225.11 353.37 147.26 353.37 143.43 219.74 221.29" style="fill: #fff; stroke-width: 0px;"/>
  <g>
    <path d="M347.36,306.96c-28.86,72.71-60.88,94.86-102.54,85.25-48.71-11.24-43.12-69.11-43.83-136.02-.63-58.6,25.5-96.49,90.54-91.1,42.61,3.53,103.6,21.49,55.83,141.87Z" style="fill: #e6007e; stroke-width: 0px;"/>
    <path d="M227.66,351.62c.4-10.43,6.61-17.31,14.95-16.99,8.34.32,13.81,7.65,13.41,18.08-.4,10.43-6.41,17.08-14.75,16.76-8.34-.32-14-7.42-13.6-17.85ZM234.12,314.13l.52-104.89c-.16-10.21,5.26-16.17,13.42-15.86,7.97.31,12.92,6.67,12.15,16.85l-7.75,104.62c-.66,7.33-3.61,11.73-9.54,11.5s-8.72-4.85-8.81-12.21Z" style="fill: #fff; stroke-width: 0px;"/>
    <path d="M273.5,315.44l2.91-10.27c3.23-11.41,5.95-15.57,14.1-21.89l15.7-12.57c3.22-2.54,4.53-5.13,6.02-10.38l5.75-20.31c1.48-5.25.49-9.23-3.08-10.24l-1.07-.3c-3.57-1.01-6.68,1.81-8.16,7.06l-3.42,12.1c-2.26,7.99-8.03,12.03-15.52,9.91-7.67-2.17-10.47-8.63-8.21-16.62l3.29-11.64c6.39-22.59,18.96-31.61,37.16-26.46l5,1.41c18.02,5.1,24.19,19.41,17.8,42.01l-5.75,20.31c-2.45,8.67-5.48,13.24-12.06,18.77l-14.97,12.03c-4.99,4.01-6.91,7.41-9.11,15.17l-2.45,8.67c-2.32,8.22-8.09,12.25-15.76,10.08-7.67-2.17-10.47-8.63-8.15-16.85ZM261.24,352.65c2.84-10.04,10.31-15.32,18.34-13.05,8.03,2.27,11.62,10.68,8.78,20.73s-10.24,15.1-18.27,12.82c-8.03-2.27-11.69-10.46-8.85-20.5Z" style="fill: #fff; stroke-width: 0px;"/>
  </g>
</svg>