<svg xmlns="http://www.w3.org/2000/svg" viewBox="0 0 386.5 353.7"><g id="Layer_1" data-name="Layer 1"><polygon points="207.1 236.5 353.2 151.4 352.2 149.6 207.1 234.2 207.1 236.5" fill="#fff"/><polygon points="166.1 258.1 4.9 352 5.9 353.7 166.1 260.4 166.1 258.1" fill="#fff"/><polygon points="207.1 225.8 353.2 140.7 352.2 138.9 207.1 223.5 207.1 225.8" fill="#fff"/><polygon points="166.1 247.4 4.9 341.3 5.9 343 166.1 249.7 166.1 247.4" fill="#fff"/><path d="M186.1,256.4a8,8,0,0,1-1.6,4.5,11.1,11.1,0,0,1-3.8,3.7c-1.5.9-2.8,1.2-3.9.8a2.5,2.5,0,0,1-1.6-2.7V237.4a8,8,0,0,1,1.6-4.5,10.3,10.3,0,0,1,3.8-3.7c1.5-.9,2.8-1.2,3.9-.8a2.6,2.6,0,0,1,1.6,2.7Zm-3.6,4.3-.2-29.7c0-.5-.1-.9-.5-1.1a1.3,1.3,0,0,0-1.3.2,3.2,3.2,0,0,0-1.3,1.3,4.1,4.1,0,0,0-.5,1.7v29.7a1.1,1.1,0,0,0,.6,1.1,1.3,1.3,0,0,0,1.3-.2,2.6,2.6,0,0,0,1.2-1.3A3.2,3.2,0,0,0,182.5,260.7Z" fill="#fff"/><path d="M199.2,229.1l-3.7,2.1v-9.6l-2.7,1.6v15.2l4.1-2.4v.9l-4.1,2.4v17.1l1.1-.6v.9l-5.8,3.4v-.9l1.2-.7-.2-33.2-1.1.7v-.9l11.1-6.5Z" fill="#fff"/><path d="M44,280.3c0,5.6-2.1,11.6-6.3,18.1a47.4,47.4,0,0,1-15.4,14.9c-6,3.4-11.1,4.4-15.4,2.9S.4,311.1.4,305.5L0,204.5c0-5.6,2.1-11.6,6.4-18.1a44.3,44.3,0,0,1,15.3-14.9c6-3.5,11.2-4.4,15.4-2.9s6.4,5.1,6.5,10.7v22.5l-14.6,8.4V178.9c0-2.2-.7-3.7-2.1-4.4s-3.2-.5-5.2.6a14.5,14.5,0,0,0-5.1,5.3,13.7,13.7,0,0,0-2.1,6.9L15,305.9c0,2.2.7,3.7,2.1,4.4s3.2.5,5.2-.6a14.5,14.5,0,0,0,5.1-5.3,13.7,13.7,0,0,0,2.1-6.9V266.2l14.5-8.4ZM10.1,313.4c-1.6-1.6-2.4-4.4-2.4-8.3L7.2,196.5a25.9,25.9,0,0,1,2.4-11c-4,5.3-6,10.5-6,15.5L4,304.9C4.1,309.8,6.1,312.6,10.1,313.4ZM36.4,202.5V180.3c0-5.4-2.2-8.3-6.6-8.8,2,1.3,2.9,4,3,8.1v25Zm.3,85.2V265.6L33,267.7v25a23,23,0,0,1-2.9,11.4C34.6,298.5,36.8,293.1,36.7,287.7Z" fill="#fff"/><path d="M99.5,267.7,80.8,278.5v-2.8a30.6,30.6,0,0,1-10.4,9.8c-10.4,6-15.6,2.8-15.6-9.4l-.3-82.9-4.6,2.6v-3.6l18.7-10.8.4,93.3c0,5,1.8,6.5,5.3,4.5s4.4-3.7,6.5-7.2l-.4-93.8-4.5,2.6v-3.6l18.7-10.8L95,266.7l4.5-2.6ZM65.4,284.8c-2.3-1.2-3.5-4.1-3.5-8.6l-.4-87.1-3.6,2.1.4,84.9C58.3,283.2,60.7,286.1,65.4,284.8Zm22.5-14-.4-96.7-3.6,2.1.3,96.7Z" fill="#fff"/><path d="M145.3,169l-14.1,8.1V156c0-5.1-1.5-6.8-4.4-5.1s-3.8,3.3-5.6,6.7l.3,93.8,4.6-2.7v3.6l-23.3,13.5v-3.6l4.6-2.7-.4-96.6-4.6,2.6v-3.6L121,151.1V154a28.4,28.4,0,0,1,9.9-9.6c9.5-5.5,14.2-2.1,14.3,10.1Zm-30.9,86.4-.3-96.6-3.7,2.1.4,96.6Zm23.8-86V155.2c0-5.6-2-8.1-5.9-7.5,1.5.7,2.2,3.3,2.3,7.8v16Z" fill="#fff"/><path d="M174,224.6l-23.2,13.5v-3.7l4.5-2.6-.4-96.6-4.5,2.6v-3.6L169,123.4l.4,100.2L174,221Zm-5-113.2-14.2,8.2v-24l14.2-8.2Zm-7.1.5V95.1l-3.6,2.1V114Zm.5,115.8-.4-96.6-3.7,2.1.4,96.6Z" fill="#fff"/><path d="M221.4,177.8c0,5.7-1.9,11.7-5.8,17.8A41.1,41.1,0,0,1,201,210c-5.9,3.4-10.8,4.3-14.7,2.6s-5.9-5.4-5.9-11.1l-.3-65c0-5.8,1.9-11.7,5.8-17.9a42.1,42.1,0,0,1,14.7-14.4c5.9-3.4,10.8-4.3,14.6-2.6s5.9,5.4,5.9,11.2Zm-31.5,32.1q-2.4-2.4-2.4-8.7l-.3-72.6a27.2,27.2,0,0,1,2.3-11.5q-6,8.1-6,15.9l.3,68C183.8,206.2,185.9,209.1,189.9,209.9Zm17.3-15.1-.3-82.6c0-5.4-2.1-6.8-6.3-4.4s-6.4,6.4-6.4,11.7l.4,82.6c0,5.3,2.1,6.8,6.4,4.3S207.3,200.1,207.2,194.8Zm7.1-9.7-.3-71.5c0-5.4-2.2-8.4-6.6-8.9,2,1.1,2.9,3.9,3,8.2l.3,77.1a23.6,23.6,0,0,1-2.9,11.7C212.1,196.1,214.3,190.6,214.3,185.1Z" fill="#fff"/><path d="M269.2,150.2a33.4,33.4,0,0,1-5.2,17.4,40.8,40.8,0,0,1-14.3,14.3q-8.7,4.9-14.4,2.4c-3.7-1.8-5.6-5.6-5.6-11.3V160.6l14.2-8.2v21.2c0,5.3,1.9,6.9,5.8,4.7s5.5-5.9,5.4-11.2V151.8c0-6.5-1.7-10.5-5-12.2l-15-7.6c-3.7-1.8-5.6-6.7-5.6-14.5V108q0-8.7,5.4-17.7a38.6,38.6,0,0,1,14.1-14c5.9-3.4,10.6-4.2,14.2-2.4s5.4,5.6,5.5,11.4V97.7l-14.1,8.2V84.7c-.1-5.3-1.9-6.9-5.6-4.8s-5.4,5.8-5.3,11.1v13.7c0,6.5,1.7,10.5,4.9,12.1l15,7.6c3.7,2,5.6,6.9,5.6,14.7Zm-7,7.2V145.6c-.1-7.3-1.8-11.8-5.2-13.6l-15.7-8.1c-3.1-1.7-4.7-6.1-4.8-13.3V100.1a28.8,28.8,0,0,1,2.3-11.5c-4,5.4-5.9,10.7-5.9,15.9v9.6c0,7.3,1.8,11.9,5.1,13.7l15.7,8.2q4.8,2.4,4.8,13.2v13.2a24.6,24.6,0,0,1-2.9,11.6C260.1,168.4,262.2,162.9,262.2,157.4Zm-23,24q-2.4-2.4-2.4-8.7V160.1l-3.6,2.1v10.3C233.2,177.7,235.2,180.6,239.2,181.4Zm22.4-83.3V86.2q-.2-8.2-6.6-9c1.9,1.3,2.9,4.1,2.9,8.2v14.8Z" fill="#fff"/><path d="M298.7,152.6,275.5,166v-3.6l4.5-2.6-.4-96.7-4.5,2.6V62.1l18.7-10.8.4,100.3,4.6-2.6Zm-5-113.3-14.2,8.2v-24l14.2-8.1Zm-7.1.5V23.1l-3.6,2.1V41.9Zm.5,115.9L286.7,59,283,61.1l.4,96.7Z" fill="#fff"/><path d="M331.6,133.5l-4.5,2.7c-5.9,3.4-10.8,4.2-14.7,2.5s-5.8-5.4-5.8-11.1l-.4-79.9-4.6,2.7V46.8l4.6-2.7V15.2L320.2,0V36l10.2-5.9v3.6l-10.2,5.9.4,88.6c0,5.4,2.1,6.8,6.4,4.3l4.5-2.6ZM316,135.9c-1.6-1.5-2.4-4.4-2.4-8.5l-.5-115.7-3.6,4,.4,111.3C309.9,132.3,312,135.3,316,135.9Z" fill="#fff"/><path d="M379,153.7c0,5.8-1.8,11.6-5.4,17.7a39.9,39.9,0,0,1-14.2,14.1c-5.5,3.2-10.3,4-14.4,2.3s-6.1-5.3-6.1-10.9v-3.6l14.2-8.2v12.4c0,5.3,2.1,6.8,6.2,4.4s5.6-5.9,5.6-11.2V109.6a30.6,30.6,0,0,1-10.4,9.8c-10.4,6-15.6,2.8-15.6-9.5l-.3-80.8L334,31.7V28.1l18.7-10.8.4,91.3c0,5,1.8,6.6,5.3,4.5s4.4-3.7,6.5-7.1l-.4-91.9-4.5,2.6V13.1L378.6,2.3Zm-29.6-35c-2.3-1.2-3.5-4.1-3.5-8.7l-.3-85-3.7,2.1.4,82.9C342.3,117.1,344.7,120,349.4,118.7Zm-1,66.5c-1.6-1.5-2.4-4.4-2.4-8.6v-3.8l-3.6,2.1v1.4C342.4,181.6,344.4,184.5,348.4,185.2ZM372,161.1,371.5,10l-3.6,2.1.4,153.9a23,23,0,0,1-2.7,11.5C369.9,172.1,372,166.6,372,161.1Z" fill="#fff"/><path d="M12.6,131.1c0-7,4.6-11,9.1-11,2.9,0,3.7,1.8,3.6,3a9.7,9.7,0,0,0-6.1,9.4c0,4.1,1.9,6.8,4.2,7.5,4.8-1.9,7.6-6.5,11-14.8,6.1-14.6,14.3-38.3,18.2-48.6-5.5-1.3-10.7-3.7-17.2-4.5-5.9,2.2-11.6,19-11.6,29.2,0,4.1.8,7.1,3,7.8,5.2-4.1,7.8-18.4,7.8-24.8a13.8,13.8,0,0,0-.2-2.5,2.6,2.6,0,0,1,2.2-1c3,0,4.5,3.5,4.5,8.2,0,9.1-5.4,22.6-14.3,22.6-6.7,0-9.7-5.8-9.6-13.2,0-12.4,8.5-29,22.2-29,4.5,0,18.4,1.2,23.3,1.2,2.8,0,4.7-.4,5.7-1.3a2.6,2.6,0,0,1,1,2.2c0,2.7-1.5,6.2-9.4,6.2l-2.7-.2a4.3,4.3,0,0,1,.5,3c-4.9,13.7-12.2,36.2-17.1,47.1S32,142.5,23.6,142.5,12.6,137.7,12.6,131.1Z" fill="#fff"/><path d="M66.4,124.4c0-2.5,2.3-8.5,5.5-14.6s6.6-12,6.3-14.1c-3.7.1-17.3,25.3-21.2,34.2-2.6-.1-5-.3-5-2.6s1.9-8,4.4-14.6c1.6-4.4,3.4-8.9,5.2-13.3,4.6-11.5,9.3-22.7,11.6-27.5a15.2,15.2,0,0,1-3.8.5c-2,0-2.6-.5-2.6-1.4a3.5,3.5,0,0,1,.3-1.3c3.3.1,5.5-.5,7.6-.5a4.8,4.8,0,0,1,4.5,4.4c0,1.5-2.5,6.4-4.4,10.8-3.4,8.2-7.5,18-11,27.7,5.4-10.4,10.4-19.2,14.8-19.2,2.6,0,6.1,1.2,6.1,4.6s-2.5,7.9-5.8,14.5-6,12.2-6,14.8c3-1.5,5.6-5.2,7.5-8.6.6-.1,1,.1,1,.8,0,3.1-5.6,11.2-9.9,11.2C69,130.2,66.4,127.6,66.4,124.4Z" fill="#fff"/><path d="M115.9,97.1c.8-.1,1.5.1,1.5.9,0,2.8-10.3,32.2-24.1,32.2-5.6,0-10.2-3.3-10.2-8.3,0-7.2,4.1-19.2,9.7-25.5a9.7,9.7,0,0,1,7.6-3.7c3.6,0,7.7,1.8,7.7,7.1s-7.4,20.6-16.2,20.6a4.6,4.6,0,0,1-2-.3,18,18,0,0,0-.2,2.2,4.5,4.5,0,0,0,3.1,4.7C99.4,125.5,110.5,110.3,115.9,97.1Zm-25.6,21c6.5-1.1,12.8-15.7,12.8-21,0-.8-.1-1.4-.5-1.7C99.2,95.7,92.3,109.3,90.3,118.1Z" fill="#fff"/><path d="M198.1,346.4c1,.9.1,2.3-1.2,2.1-3.3.1-5.6-2.8-7.8-4.9-5.6-7.5-11.2-15.1-17.7-21.9-2.8-2.5-12.4-26.6-6.2-26.8,3.2,1.1,4.9,13.9,5.3,17.5,1.9,10.9-1.9,19.6-5.1,29.7-3.8,13.2-16.4,5.9-19.8-3.4-6.8-16.2-5.2-41.8,17.8-39.8.1-.1.4.1.5,0s-.6,1.1-.8,1.1,0-.2.4-.6,2.8.1,2.6,1.7-2.5.6-2.3-.5,1.5-1.4,1.6-.8-.8,1.5-1.5,1.5a8.6,8.6,0,0,0-3.2-.1c-30.2.5-11.6,58.3,1.1,43.3,2.5-6.6,5.2-13.5,6.5-20.4a60.5,60.5,0,0,0-3.9-27.3c.2.1,1-.1,1.1-.1v.2c.8,8.5,3.5,18.2,9.1,24.9,3,3.5,6.5,6.5,9.1,10.4C187.8,337.3,191.1,345.4,198.1,346.4Z" fill="#fff"/><path d="M243.1,341.9c.7-.8,2.9.1,1.6,1s-1.6.7-1.3.9c-3,.8-6.3-.5-9.5-.8s-8.1-.6-11.1-3.3A47.3,47.3,0,0,1,212.5,308c-.1-5.4,3.7-9.4,6.1-13.9,4.4-10.3,12.2-16.2,22.7-9.3h-.2c-.2-.3.8.2,1,.3s-.4,3-1.3,1.7l.3.2h.1c-.4.1-1-.4-1.3-.4-3.5-1.7-8.2-3.6-11.8-1.4-5.9,4.3-7.8,12.4-12.3,18-3,11.8,1.2,25.3,8.6,34.7,4.6,3,11,2.4,16.2,3.7,1.1.1,5.7-.7,2.7,1Z" fill="#fff"/><path d="M287.5,334.6c-5.3,5.7-12.6-29-15.1-32.7-6.8-10.6-13.7,16.8-14.9,21.4-2,6.3-4,12.8-2.4,19.2-.1.2-.3-.1-.2,0h.1c0-.2.3-.1.3-.3,2.4-4-1-11.1-1-15.8-1.4-12.1-2.2-24.2-3.4-36.3-.3-4.2-.7-8.7-1.1-12.8-.2-1,.9-.5,1.5-.7s.5.6.2,1-2.1.2-2.1-1,3-1.1,2.8.5c1.3,14.9,2.7,29.9,4,44.8.2,6.8,3.3,13.7,1.9,20.4-.7,2-3.4,3.6-4.9,1.4-2-5-.8-10.8.4-16,3.3-8.7,4.3-18.7,9.8-26.4,3.6-5.8,10-5.4,11.9,1.4C279.4,313.3,281.2,325.1,287.5,334.6Z" fill="#fff"/><path d="M296.2,283.7c-1,1.3-2.4-.1-2.4-1.4s.6-1.1,1.1-.5h-.1a7.3,7.3,0,0,0-.2,3.3c.2.9,0,1.9.5,2.7h.1c0,.1,0,.1.1.2s-.1.2-.1,0,.2.1-.1.1l-.6.2v-.2c.5-3.1-.4-6.5-1.3-9.5-.1-.1-.1-.2.1-.3s.6.4.6.3h.1c-.5,3.5-.8,7.8,1,11,0,.1,0,.1-.1,0h-.1c-.1-.2.4,0,.3-.2s.3-.3.5-.3V289c.7-3.2-1.6-6.5-3.1-9.2-.7-.5-.4-.6.2-.6a36.9,36.9,0,0,0-.1,11.5c-1.4,0-2.7-1.3-.5-.9s-.5,2.2-1.9,1.1c-3.3-29.6,13.6-2.6,5.8.9-6,3.1-6.5-19.5-1.1-14.6,1.6,2,4.4,15.7-1.2,12.6-1.9-1.5-2.9-9.2.2-9.8S296.6,282.1,296.2,283.7Zm1.1,53.6c-3,2-2.1-4.1-2.5-5.7-.8-4.7,0-9.4-.5-14-.4-7.2-1.5-15.5-2.3-22.1a3.6,3.6,0,0,1-.6-2.3c.3-.6,1.2-2.2,2-1.3a1.2,1.2,0,0,1-.3,2c-.2.1-.2,0-.1-.2a1.7,1.7,0,0,1,.8-.7c0,.4.2.9,0,1.2h0a3.9,3.9,0,0,1,.6,2.4c.7,4.3,1.4,8.7,1.7,13.1s1.4,9.4.6,14,.6,8.2.9,12.3A2.4,2.4,0,0,1,297.3,337.3ZM292.6,287c0-1,1.6-1.4,2-.6s.9.6.8.7h0c1,.5-1,.7-1.2.9a11.5,11.5,0,0,1-.2-2.1l-.3-2.8c.4-.5,2.4-.3,2,.6a11.6,11.6,0,0,0-.4,1.8,1.9,1.9,0,0,1,.1.8c-.2-.1-.6-.8-.2-.4a1.1,1.1,0,0,1-.4,1.9c-2.7.2-2-4.1-1-5.4.5.5,2.5-.1,2.4.8s1.6,6.4-1.9,6h-.2c-.2-.1-.5-.4-.5-.6S292.7,287.3,292.6,287Z" fill="#fff"/><path d="M330.9,331.6a1.2,1.2,0,0,1-.1,2c-8.7,3-14.7-5.6-18.2-12.2-11.5-21.5-5.5-33.9-2.4-55.3h0c.1-.1.2.2.3.3s-.9-.1-.2-.3-2,.6-2-.3c0-2.9,4.5-2,4.3.7-1.9,15.7-8.1,30.2-1.3,46.1,2.9,6.8,6.2,15.7,13.5,19C326.7,332.2,328.9,331.5,330.9,331.6Z" fill="#fff"/><path d="M386.1,332.2c1.7,2.9-3.4,2.2-5.1,2.4-26.2.9-19.4-54.2-22.2-71.8.6-.1,2.8-1.1,2.1.5-2,9.2.8,19,.4,28.5-.3,11.3-.3,22.6-1.7,33.9-.5,4.2-.3,9-2.8,12.5-5.8,3.7-15.3-3.6-17.1-9.4a42.3,42.3,0,0,1,4.2-39.5c5-5.9,13.6-3.6,20-2.1h0c2.4-.2,1.9,2.9-.5,2.3a6.1,6.1,0,0,0-3-.5c-3.5-1-7.2-1.7-10.9-.7-6.4,2.2-7.4,10.1-9.3,15.7-3.2,11.5-.7,32.1,14.2,32.9,1.6-.8,1.7-2.6,2-4.4a255,255,0,0,0,2.3-36c1.4-11.3-2.7-22.9,0-34,.4-.3,2.8-.8,2.5.4a140,140,0,0,1,.9,17.1c-.1,9.6.3,19.3,2.2,28.7C366.8,323.5,368.5,333.5,386.1,332.2Z" fill="#fff"/></g></svg>