<svg id="Layer_1" data-name="Layer 1" xmlns="http://www.w3.org/2000/svg" viewBox="0 0 100 22.2"><path d="M91.5,6.4c.2-.3.6-.4.8-.6s.2,0,.2.1l.3.3c.2.4.3.9.5,1.3a1.6,1.6,0,0,0,.4.7,2.9,2.9,0,0,1,0,2.7,1,1,0,0,1-.5.4l-.4.2a3.7,3.7,0,0,1-2.7.4l-.3-.2a8.8,8.8,0,0,1-1.5-1.2l-.7-.8a4,4,0,0,1-1.4-2.2,2.5,2.5,0,0,1-.1-1.2A5.1,5.1,0,0,1,86.3,5a10.3,10.3,0,0,0,.4-1.4,9.4,9.4,0,0,1,.3-.9.9.9,0,0,1,.3-.5,4.9,4.9,0,0,1,1.5-1h.1a7.7,7.7,0,0,1,2.9-1l.8-.2a10.7,10.7,0,0,1,2.5.3,5.9,5.9,0,0,1,1.4.6l1.6,1.2a7.7,7.7,0,0,1,1.4,2.1l.3.7a2.3,2.3,0,0,1,.1,1.4v.9a2.8,2.8,0,0,0,.1.9,7.6,7.6,0,0,1-.3,2.1l-.3,1a11.4,11.4,0,0,1-1.5,2.9l-.8.9c-.6.6-1,1.4-1.6,1.9l-.2.2a2.3,2.3,0,0,1-1.2,1.2l-3,1.5-.9.4a6.5,6.5,0,0,1-2.1.6,25.8,25.8,0,0,1-2.9.3l-3.6.2a30.5,30.5,0,0,1-4.3-.1l-2.9-.3-1.6-.2-2.3-.4a23.3,23.3,0,0,1-3.6-.8L64,18.7a37.5,37.5,0,0,1-4.3-1.6l-1.8-.7-2.5-1.2-3-1.4-2.9-1.2L43.1,9.7l-2.3-.9L35.2,6.6,31,5a34.3,34.3,0,0,0-4.6-1.1l-3.6-.4a12.1,12.1,0,0,0-1.9,0l-2.1.3A15,15,0,0,0,14.3,5L11.5,6.1a11.1,11.1,0,0,0-3,1.7L6.6,9.1a10.4,10.4,0,0,0-2.2,2.5l-.9,1.8a14.5,14.5,0,0,0-.9,2.2,4.1,4.1,0,0,0,.1,1.9c0,.1.2.3.3.4a3.9,3.9,0,0,0,1.1.6l3.3.8h3.9a3.6,3.6,0,0,0,1.8-.7,6.4,6.4,0,0,0,2.2-2.4,12.4,12.4,0,0,0,1-2l.3-1.2a1.4,1.4,0,0,0-.1-.9,1.1,1.1,0,0,0-.7-.6l-1.5-.2a1,1,0,0,0-.9.4L12,13h0a1.1,1.1,0,0,0,1.1.6h.4l.3.2a1.5,1.5,0,0,1,.2.9v.2a1.2,1.2,0,0,1-1,.2L12,15a.9.9,0,0,1-.6-.4c-.8-.7-.7-.5-.9-1.5a5.8,5.8,0,0,1-.3-1.4c0-.2-.1-.3-.1-.5a.5.5,0,0,1,.1-.6c.4-.5,1-.9,1.5-1.4l.5-.2a4.4,4.4,0,0,1,3,.2l.5.3a2.5,2.5,0,0,0,1,.8,5.2,5.2,0,0,1,1.5,1.8,5.3,5.3,0,0,1,.3,3.3,14.6,14.6,0,0,1-.7,1.9,6.9,6.9,0,0,1-1,1.7l-1,1.2-.5.5a8.8,8.8,0,0,1-2.6,1.2l-1.4.2H9.4a9.3,9.3,0,0,1-3.3-.4l-1.2-.4a10.7,10.7,0,0,1-2.2-1l-.3-.3a1.6,1.6,0,0,1-.4-.7l-.3-.5a3.4,3.4,0,0,1-.5-1.4,14.2,14.2,0,0,0-.5-1.6c-.2-.5-.5-1.1-.7-1.7v-.5a16.7,16.7,0,0,1,.8-2A21.5,21.5,0,0,1,2.2,9.1,15.4,15.4,0,0,1,3.9,7.2l1.3-.9A19.6,19.6,0,0,1,8,4.4l.6-.2.8-.4a1.9,1.9,0,0,1,1-.5,1.3,1.3,0,0,0,.8-.3A5.1,5.1,0,0,1,13,2.1a14.5,14.5,0,0,1,2.6-.7L18.5.9H20a13.4,13.4,0,0,1,4,0l3.2.7h.5a1.6,1.6,0,0,0,.9.5l3.6,1.1,6.2,2.3,2.1.8,1.6.7h.2c1,.3,1.9.8,2.9,1.2a5.9,5.9,0,0,0,1.4.6l3.2,1.4,4.3,1.9,5,2.1,4.5,1.6c1.2.3,2.4.7,3.6.9h.4a6.5,6.5,0,0,0,2,.5l2.8.4a24.8,24.8,0,0,1,2.7.3l3,.2h6.5a13.5,13.5,0,0,0,4-.8L91.7,16a10,10,0,0,0,2.4-1.6l.3-.3.3-.4A6.4,6.4,0,0,1,96,12.2a5.9,5.9,0,0,0,1.3-1.8,5.6,5.6,0,0,0,.5-.8,13.4,13.4,0,0,0,.7-1.8,2.7,2.7,0,0,0,0-.9,4.6,4.6,0,0,0-1.4-2,8.7,8.7,0,0,0-2.7-1.4A3.4,3.4,0,0,0,93,3.4a8.2,8.2,0,0,0-4.5,1.4c-.3.3-.7.5-.9,1a.7.7,0,0,0-.1.5,4.3,4.3,0,0,0,1.8,2l1.1.6H91l.6-.2a.8.8,0,0,0,.3-1A5,5,0,0,1,91.5,6.4Z" fill="#fff"/></svg>