<svg version="1" xmlns="http://www.w3.org/2000/svg" width="2400" height="2400" viewBox="0 0 1800.000000 1800.000000"><path d="M0 900v900h1800V0H0v900zm1429-649.5c0 39.3.2 71.5.4 71.5s8.4-4.7 18.2-10.3c9.9-5.7 18.9-10.9 20.2-11.6 2.2-1.2 2.2-1.1 2.2 6.2v7.4l-20.2 11.7-20.3 11.6.3 104.7c.3 158.8 1.3 257.3 2.4 261.7 1.4 5.8 5.7 9.6 10.7 9.6 4.9 0 6.9-.8 19.7-8.2 5.5-3.2 10.6-5.8 11.2-5.8.8 0 1.2 2.3 1.2 6.9v6.9l-13.5 7.7c-21.7 12.4-35.9 17.1-49.5 16.2-19.5-1.2-32.4-12.8-36.6-32.9-1.3-6-1.6-32.4-2.2-170.5l-.7-163.3-8.5 5c-4.7 2.7-8.9 5-9.3 5-.4 0-.7-3.3-.5-7.2l.3-7.3 8.8-5.1 8.8-5.1-.1-58v-57.9l27.7-30.1c15.3-16.6 28.1-30.2 28.6-30.2.4-.1.7 32.1.7 71.4zm234.4 261c.6 265.2.6 292.8-.9 301-8.9 50.3-49.8 100.5-95.1 116.8-23.2 8.3-45.4 3.3-56.2-12.7-5.4-8-7.5-17-7.6-31.9l-.1-13 28-16.2 28-16.2 1 31.1c1.2 34.7 1.5 36.5 8.1 39.2 4.5 1.9 10.5.4 18.2-4.6 6.8-4.3 11.3-9.3 14.7-16 5.6-11.1 5.5-6.7 5.5-144.3V617.8l-4.6 6.1c-17.8 23.6-50.5 44.1-70.6 44.1-11.7 0-20.1-6.3-24.4-18.2-4.4-12.1-4.4-10.9-5.1-186.6-.3-91.9-.8-167.2-1.1-167.2-.3 0-4 2-8.3 4.5-4.3 2.5-8.3 4.5-8.9 4.5-.6 0-1-2.8-1-6.9v-6.9l37.4-21.6c20.5-11.9 37.6-21.6 38-21.6.3 0 .7 43.5.7 96.7.1 53.3.4 138 .8 188.3l.6 91.5 2.2 4.1c2.5 4.6 3.8 5.4 9.1 5.4 8 0 22.2-11.5 30.9-25l4.2-6.5-.8-182.8c-.5-100.5-1-183-1.3-183.2-.2-.2-4.2 1.8-8.8 4.4l-8.5 4.9-.3-7.1c-.2-3.8.1-7.4.5-7.8.4-.4 17.2-10.2 37.3-21.8l36.5-21 .6 15.7c.4 8.6.9 147.1 1.3 307.7zm-340.6-220.4l-.3 45.2-28 16.2-28 16.2-.7-33.6c-.5-18.5-.7-40.1-.5-48l.2-14.5 28-16.2 28-16.2.8 2.8c.4 1.6.6 23.2.5 48.1zm1 292.7c.5 109.6 1.1 199.5 1.4 199.8.3.3 4-1.5 8.3-4 4.2-2.6 8.1-4.6 8.6-4.6.6 0 .9 3 .7 7.1l-.3 7.1-45.5 26.4c-25 14.5-46.1 26.4-46.7 26.4-.9 0-1.3-2-1.3-6.9v-6.9l8.8-5 8.7-4.9-.3-192.8c-.1-106.1-.4-193-.6-193.2-.2-.2-4.1 1.8-8.7 4.5l-8.4 5-.3-7.1c-.2-3.8.1-7.4.5-7.8 1.3-1.2 73.6-42.9 74-42.6.1.2.7 90 1.1 199.5zM451.2 456.2c5.2 1.5 11.4 7.7 12.9 12.7 1.6 5.4.9 7.5-10.6 33.6-15.7 35.6-47.5 114.1-47.5 117.3 0 .4 3.9-6.3 8.6-14.8 17-30.8 30.7-48.6 41-53.1 8.4-3.7 20.8-.8 27.1 6.4 7.9 9 5.4 17.8-18.4 67.2-16 33-22.9 49-23.9 55.5l-.7 4.2 2.9-1.5c4.8-2.5 14.2-12.6 20.5-22 3.2-4.9 6-9.4 6.2-10 .7-1.8 4.1.6 4.5 3 .5 3.2-3.6 12.9-8.8 20.6-9.9 14.8-24.5 25.7-32.8 24.3-6-.9-12.2-5.5-15.6-11.6-2.6-4.7-3.1-6.5-3-12 .2-12.2 8.9-34.2 27-68.5 12.9-24.5 17.8-35.1 19.2-41.3.8-3.3.7-4.2-.3-4.2-8.2 0-41.2 51.7-71.2 111.5-10.8 21.6-12.8 25-14.6 24.8-8.1-.6-12-1.7-14.7-3.9-2.6-2.2-3-3.3-3-7.4 0-5.6 4.7-22.4 11.8-42.5 13-36.7 52.7-135 68.6-169.8l3.5-7.8-6.2.6c-8.4.9-8.2.8-9.5 5.3-1.6 5.2-8.6 11.5-15.2 13.7-6.1 2-19.1 3.4-26 2.7-5.2-.5-5.3-.4-4.6 1.9.3 1.3.9 3.5 1.2 4.9.8 3.8-45.4 136.1-61 174.8-21 52-36.7 71.3-62.1 76.7-34 7.2-58.5-11.4-58.5-44.5 0-23.6 14.2-41.9 33.9-43.7 7-.7 12.3.9 15.1 4.4 3.5 4.4 2.7 6.4-4.4 11.1-7.1 4.7-10.5 8.7-14.4 17-2.4 5.1-2.7 6.8-2.7 16.7 0 10.5.2 11.4 3.3 17.8 3.5 7 8.6 11.7 12.8 11.7 3.7 0 14.5-8.1 20.5-15.2 13.7-16.4 26.2-46.4 73.9-177.3 11.4-31.4 21.1-57.7 21.5-58.7.5-1.2-.1-1.8-2.6-2.3-1.8-.4-10.3-2.9-18.8-5.6-27.7-8.8-45-12.6-48.5-10.7-7.6 4.1-16.4 15.8-24.1 32.2-21.2 44.8-26.8 101.8-11.1 113l2.8 2.1 3.9-4.5c13.9-16 25.5-56.2 26.5-91.5.4-14.3.5-15 2.6-16.2 3.4-1.8 9.9-1.6 13.4.6 12.4 7.6 14 39.5 3.5 70.9-7.6 22.6-20.8 40.4-34.8 47-8.2 3.8-20.4 4.3-28.8 1.1-29.3-11-33.8-64.4-9.4-113 13.9-27.8 36.2-47.5 59.4-52.4 9.2-1.9 17.1-1.9 53.5.5 47.1 3 56.8 3.3 63.9 2.1 3.6-.6 6.7-1.5 7.1-2.1.3-.5 6.4-1.2 13.4-1.5 7.1-.2 13.1-.7 13.4-1 .9-.8 4.2-.6 8.4.7zm746.1 16.8c11.4 4.3 20 15.1 23.1 29.2 2.1 9.4 3.3 66 1.4 67.5-.8.7-13.5 8.2-28.3 16.8l-27 15.5-.6-46.7c-.7-49.4-1.1-53.6-5.4-57.9-6.7-6.7-24.1 2.3-31.9 16.5-5.8 10.8-6.1 13.8-5.8 57.6.3 44 .8 49.2 6.2 60.1 1.7 3.4 4.8 7.8 6.9 9.7 2.4 2.1 16.8 10 36.1 19.7 39.2 19.6 42 21.9 47.5 38 4.5 13.1 5 19.3 5 58 0 31.5-.2 37.7-1.8 45-5.3 24.9-16.8 48.1-34.3 69.1-25.6 30.8-65.2 52.1-88.8 47.8-17.1-3.1-27.3-13.7-31.9-33.3-.7-3.3-1.2-15.5-1.2-34.9v-29.8l28.1-16.3 28.1-16.3.6 26.1c.4 14.4.7 35.2.7 46.4 0 21.8.8 27.7 4.6 31.7 7.1 7.7 26.8-3.1 34.3-18.8 4.9-10.3 5.3-15.2 4.9-62.3-.5-46.3-.7-48.3-6.3-59.9-4.3-8.9-7.7-11.3-42.9-29.1-19.6-10-34.6-18.2-36.9-20.3-5.2-4.7-8.4-9.9-11.2-18.2-4.1-11.9-4.9-20.4-4.9-54.4-.1-27.3.2-33.2 1.7-40.4 9.6-44.3 38.1-83.9 76.3-105.6 22.1-12.6 39.2-15.9 53.7-10.5zM824 576.7v47.8l-27.7 16c-15.2 8.8-28 16.1-28.5 16.3-.4.2-.8-21.4-.8-48l.1-48.3 27.2-15.7c15-8.6 27.8-15.7 28.5-15.7.9-.1 1.2 10.1 1.2 47.6zM561 551c6.2 1.7 12.7 6.6 15.7 11.7 2.6 4.5 2.8 5.5 2.7 15.8 0 9.9-.4 11.9-3.3 20-6.9 18.7-16.5 34.3-28.5 46-12.2 11.9-24.7 17.4-36.1 15.8l-4.5-.6v6.8c0 8.3 2.4 14 7.5 17.4 2.6 1.8 4.3 2.2 6.6 1.7 13.6-2.7 42.3-32.8 62.8-65.8 8.3-13.3 18.9-32.9 23.7-44.1 3.1-7 4.3-8.7 6-8.7 1.2 0 2.7.7 3.4 1.5 3.5 4.2-12.8 46.6-27.9 73-8.6 15-16.1 25.2-26 35.7-16.8 17.7-32.8 24.8-49.6 21.9-10.1-1.8-16.9-4.7-22.5-9.8-6.7-6-10.2-12.9-10.8-21.3-1.2-17 8.3-52.2 20.6-76.5 8.4-16.7 21.7-33.2 30.5-37.7 8.9-4.6 19.9-5.6 29.7-2.8zm448.1 34.2c13.8 6.4 20.7 17.5 22.9 36.7.5 4.9 1 67.3 1.1 144.6.1 124 0 136.7-1.6 144-6.3 30.3-25.2 62.9-49.6 85.9-22.1 20.9-50.9 35.6-70.4 35.9-10.3.2-17-1.5-24.4-6.3-7.1-4.6-12.2-11.6-15.3-21-2.1-6.4-2.1-7.9-3-116.5-1.1-135.1-.7-177.2 1.6-186.8 8.8-36.9 34.9-75.4 66.6-97.9 11.2-8 28.6-16.9 38.5-19.8 10.4-2.9 25.9-2.4 33.6 1.2zM824.9 828c0 53.1.4 129.8.8 170.6l.6 74.1 8.3-4.9c4.5-2.6 8.5-4.8 8.8-4.8.3 0 .6 3.3.6 7.2v7.3l-41.3 23.8c-22.6 13.1-43.6 25.1-46.4 26.8l-5.3 3.1v-15.1l8.9-5.1 8.9-5.1-.4-110.7c-.2-60.9-.7-147.7-1-193l-.6-82.3-2.2 1.4c-1.1.8-5.1 3.1-8.8 5.1l-6.8 3.8v-14.8l37.3-21.6 37.2-21.5.6 29.6c.3 16.3.7 73 .8 126.1zm734.3-90c1.7 2.9 1.7 3-.6 4.5-1.3.9-132.8 77.6-292.2 170.5l-289.9 168.9-.3-4.1c-.2-2.5.2-4.6 1-5.4 1.8-1.8 578.1-337.4 579.3-337.4.6 0 1.8 1.4 2.7 3zm-849.8 9.1c8.8 2.4 15.3 12.9 18.2 29.1 1.5 8.7 2.1 77.5.7 78.8-1.1 1.1-52.5 30.7-54.5 31.5-1.6.6-1.7-2.8-2-48.2-.3-47.3-.4-48.9-2.4-52.8-2.3-4.3-5.7-6.2-9.6-5.2-7.1 1.8-17.4 11.9-24.4 23.9l-3.1 5.3.8 186.4c.5 102.5 1.1 186.6 1.3 186.9.3.2 4.1-1.6 8.5-4.2 4.4-2.5 8.3-4.6 8.6-4.6.3 0 .5 3.3.5 7.2l-.1 7.3-41.6 24c-22.9 13.2-43.8 25.2-46.5 26.8l-4.8 2.7v-14.9l9-5.2 9.1-5.2-.7-192.6c-.4-105.9-.8-192.8-1-192.9-.1-.2-3.3 1.4-7.1 3.6-12.5 7.2-11.3 7.4-11.3-1.1v-7.4l37.3-21.5 37.2-21.5.5 5.1.5 5.1 3.6-5.1c12.8-17.9 34.8-34.4 53.8-40.5 6.4-2.1 13.9-2.4 19.5-.8zm850.7 35c.5 1.1.4 2-.4 2.6-2 1.6-580.1 338.1-581.9 338.9-1.6.5-1.8 0-1.8-3.8v-4.3l290.3-169.2c261.5-152.4 290.3-169 291.5-167.5.8.9 1.8 2.4 2.3 3.3zM526.3 869.2c.4 13.3.8 73 .8 132.7.1 59.7.5 138.8.8 175.8l.6 67.1 8.3-4.9c4.6-2.7 8.6-4.9 8.8-4.9.2 0 .4 3.3.4 7.3v7.3l-37.2 21.5-37.3 21.5-.5-4.9-.5-5-5.9 7.7c-7.7 10.1-16.8 18.3-29.4 26.6-11.9 7.9-22.6 12.6-33.3 14.8-6.8 1.3-8.1 1.3-13.2-.2-12.2-3.5-19-14.8-21.2-35.1-.4-3.3-1-81.7-1.3-174.2-.4-92.5-1-168.4-1.4-168.8-.4-.4-4.3 1.3-8.7 3.9-4.4 2.5-8.3 4.6-8.6 4.6-.3 0-.5-3.1-.5-7v-7l3.8-2.3c8.5-5.4 70.2-40.7 71-40.7.5 0 1.2 79.9 1.6 189.2.5 128.4 1.1 190.8 1.8 194.2.7 3.2 2.1 6.1 4 7.9 2.6 2.6 3.3 2.9 7.1 2.3 9-1.4 21.3-11.7 30.4-25.4l4.1-6.2-.4-125.2c-.2-68.9-.7-153.3-1-187.5l-.6-62.1-8.4 4.9c-4.5 2.7-8.5 4.9-8.8 4.9-.3 0-.6-3.3-.6-7.3v-7.2l36.8-21.2c20.2-11.7 37-21.3 37.3-21.3.3 0 .9 10.9 1.2 24.2zm-235-17.7c16.4 4.3 26.4 14.6 29.6 30.7.8 3.7 1.3 22.2 1.4 54.8l.2 49.2-28.4 16.4c-15.6 9-28.7 16.4-29.2 16.4-.4 0-1-29.6-1.1-65.8-.3-72.9-.1-70.4-6.9-75.3-2.6-1.8-4.7-2.4-8.9-2.4-14.1 0-30 14.6-38.9 35.7l-2.6 6.3.4 165.5c.2 91 .7 201.9 1 246.5.6 75.3.7 81.2 2.4 84.3 2.6 4.8 7.2 7.2 13.5 7.2 14.1 0 31.1-16 39-36.8l2.6-6.7-.3-67-.3-67.1 29-16.7c15.9-9.2 29.2-16.7 29.6-16.7.4 0 .6 23.7.4 52.7-.4 50.2-.5 53.2-2.5 60.3-7.5 26.6-21.1 50.7-41.7 74.2-17.9 20.3-45 38.8-67.1 45.8-8.5 2.7-23.9 3.7-31.4 2.1-17.5-3.7-28.5-16-31-34.9-.6-3.7-1.3-98.6-1.7-214.2-.5-164.9-.4-209 .6-215 3.6-21.4 15.8-46.8 33.9-70.5 7.4-9.8 24.9-27.2 34.6-34.5 27.5-20.6 54.4-29.6 73.8-24.5zM944.8 1075l-.3 20.4-7.2 4.3-7.3 4.3v-19.1c0-21.2.5-20.1-6.9-15.4l-4.1 2.5v60.1l4.8-2.8c2.6-1.5 6.1-3.5 7.7-4.5 3.8-2.2 4.5-2.2 4.5-.1 0 1.2-2.8 3.4-8 6.3l-8 4.5v34.5c0 26.7.3 34.1 1.2 33.2 1.7-1.7 2.8-1.5 2.8.6 0 1.3-3.4 3.8-11.2 8.3-13.6 7.8-12.8 7.5-12.8 5 0-1.3 1-2.6 2.7-3.4l2.6-1.2-.6-45.5c-.4-25-.7-54.6-.7-65.8 0-19.9 0-20.3-2-19.7-1.5.5-2 .2-2-1.2 0-1.3 6.1-5.3 21.8-14.4 11.9-6.9 22-12.3 22.5-11.9.4.3.6 9.8.5 21zm-57 18.6c1.3.8 2.7 2.6 3.2 4 .6 1.5 1 25.1 1 57.8v55.3l-3.5 7.1c-6.7 13.3-18.8 22.7-29.3 22.7-4.6 0-5.7-.4-7.7-2.7-1.3-1.5-2.6-4.7-3-7-.3-2.4-.5-27.9-.3-56.8l.3-52.5 2.6-5.5c5.1-10.7 14.6-19.8 24.3-23.2 5.3-1.9 8.6-1.7 12.4.8zm-76 79.9l-.3 4.5-320 186.4-320 186.4-1.7-2.6c-1-1.5-1.8-3.2-1.8-3.7 0-1 641.6-375.4 643.3-375.5.4 0 .7 2 .5 4.5zm0 47c-.2.2-142.9 83.4-317.3 185-174.3 101.6-318.3 185.4-319.8 186.3-2.7 1.6-2.9 1.6-4.7-.8-1.1-1.4-1.9-3.1-1.7-3.8.1-.7 144.9-85.6 321.7-188.6l321.5-187.3.3 4.5c.2 2.4.2 4.5 0 4.7zm782.4 25c1.1 11.4 1.8 29 1.9 48 .1 16.5.6 30.5 1.1 31.2.5.6 2.8 1.5 5.1 1.8 7.5 1.3 10.1 5.9 5.1 9.2-2.1 1.4-3.3 1.5-6.5.6l-3.9-1v5.1c0 2.8.9 14.8 1.9 26.6 3.4 37.8 13.1 87.8 20.6 105.6 4.1 10 16.1 24.1 23.9 28.1 9.5 4.9 13.5 5.7 31.4 5.8 18 .2 19.2.4 19.2 4.5 0 4.4-5 5.8-21.2 5.9-12 .1-21.7-1.9-31.5-6.4-5.9-2.7-9.2-5.2-15.2-11.2-9.6-9.8-14.1-17.6-19-32.8-3.8-11.6-10.6-42-13.3-59.5l-1.3-8.5-.6 16.5c-.7 19.7-6.3 80.2-8.9 95.1-2.9 17.3-9.1 25.8-18.9 25.9-5.7 0-16.1-3-25.9-7.6-23.6-10.9-36.3-34.2-42.8-78.4-1.8-12.2-1.5-32.1.6-44.5 1.1-6.7 6.7-25.7 12.7-43 6.7-19.2 17.4-32.8 30.3-38.3 9.7-4.2 29.6-5.2 40.4-2.1 1.6.5 3.1.7 3.3.6.1-.2-.9-12.7-2.2-27.8-2.6-29.2-2.6-45.8.1-55.3.8-2.7 1.4-6.2 1.4-7.7 0-3.4 2.3-5 7-4.6l3.5.2 1.7 18zm-199.7-9.3c3.5 3.1 4.4 8.1 3.3 18.5-.9 9.2-5.8 32.6-10.9 52.3-4.7 18.5-6.2 34.1-5.6 58.5.6 22.7 1.8 30.3 7.8 50.4 6.9 23.1 15.8 42 29 61.6 9.9 14.7 14.5 19.4 24.1 24.6 6.3 3.4 6.4 3.4 18 3.1 10.3-.2 11.8 0 12.6 1.5.6 1 .6 2.8.2 3.9-.8 2.1-4.1 3.3-14.1 4.8-8.4 1.4-22.4-3.7-31.6-11.5-15.3-13.1-34.6-45.9-44.8-76.3-9.7-29-12.1-46.2-11.2-77.6.7-21.1 1.8-28.3 9.6-60.8 6.9-29.1 9.1-45.9 5.7-44.6-2.4.9-5.6-1.5-5.6-4.1 0-3 4.3-6.5 8.1-6.5 1.5 0 4 1 5.4 2.2zm-239.1 46.4c.9.8 1.6 2.3 1.6 3.2 0 2.4 13.8 158.6 14.6 165.2l.6 5.5 3.4-12c4-14.7 12.3-38.4 15.9-45.6 4-7.9 10.1-16.7 15.4-22.2 12.8-13.4 28-12.9 37 1.1 4 6.3 10.1 23.1 18.7 51.7 14.1 46.9 23.9 71.9 31.4 80 2.4 2.6 4.1 7.1 3.4 9-.8 2-4.8 2.9-7.2 1.6-2.1-1.1-9.5-11.8-13-18.7-5.3-10.4-16-41.4-24.7-70.9-10.8-36.9-16.2-49.8-22.2-52.8-5-2.6-8.9-1.1-16.3 6.2-11.8 11.7-19.1 28.7-32.2 74.6l-7.1 25 2.8 16.5c4.3 25.7 4.5 27 4.6 35.7.1 6.6-.3 9.1-2.1 12.8-3.8 8-10.6 11.1-16.3 7.6-5.3-3.2-7.1-10.8-7-28.6.1-11.2.6-16.5 2.7-26.2 1.5-6.7 3.3-14 4.1-16.3 1.1-3.1 1.2-5.3.5-9.3-.6-2.8-4.6-46.1-9-96.1-4.4-49.9-8.5-91.7-9.1-92.8-2.3-4.3 5.8-7.9 9.5-4.2zm172 4.6c2.3 2.4 3.7 5.2 5 10.3.9 3.8 3.1 10.8 4.7 15.5 3.9 11 4.8 21.1 2.2 25.9-2.5 4.8-6.3 7.3-11.2 7.5-3 0-4.7-.5-6.3-2.1-2-2-2.3-2.1-3.4-.6-1 1.5-1.7 1.5-5.2.5l-4-1.2-.9-6.8c-1.4-11.7-.7-35 1.4-41.2 1.6-4.9 2.4-5.8 6.8-8.2 2.8-1.5 5.6-2.7 6.4-2.7.7-.1 2.7 1.4 4.5 3.1zm-233.1 21.8c6.5 2 20.3 8.6 23.3 11.1 1.9 1.5 1.8 3.2-.4 5.9l-1.8 2.3-5.5-2.1c-3-1.1-7.6-3.2-10.4-4.6-6.5-3.4-20.2-6-28.2-5.3-13.8 1.1-22.7 10.8-41.8 45.7-3.8 6.9-9.4 16.3-12.5 21-3.1 4.7-6.2 10.7-7 13.5-3.7 14.5-2.5 50.8 2.4 66.8 3.6 11.9 19.2 47.7 24.4 56.2 1.3 2.2 4.1 5.7 6.1 7.9 3.7 4 14.1 9.6 17.6 9.6 1.8 0 10.3 1.4 44 7.2 3.3.5 8.6.7 11.7.4 6.7-.7 11.8.8 11.8 3.4 0 2.9-8 7-13.8 7-6.8 0-58.3-8.7-63.5-10.7-9.3-3.6-16.8-10.5-22.9-20.9-7.9-13.5-23.1-49.4-26.3-62.2-2.1-8.1-3.5-25.4-3.5-42.1 0-16.3 2.4-29.6 6.5-35.3 1.3-1.8 4.9-7.6 8.1-12.8 3.1-5.2 6.7-11.1 8-13.1 1.2-2 3.8-6.8 5.8-10.7 4.2-8.3 14.3-23.1 19.5-28.5 5-5.3 12.4-9.8 18.4-11.3 7-1.8 21.4-1 30 1.6zm226.9 37.2c1.5 1.3 3.6 10.9 5.8 26.3.6 4.4 1.6 10 2.1 12.5s2.3 20 3.9 39c2.4 26.6 3 37.3 2.5 47-.4 8.8 0 18.6 1.3 33 1.2 12 1.6 21.4 1.1 22.6-1.2 3.3-4.7 4-7.2 1.6-1.7-1.8-2.3-4.8-3.9-22.4-1.3-14.1-1.7-24.3-1.3-33.2 1-23.1-6.1-93.2-12.2-119.2-.3-1.3.5-3.2 2.2-5.2 3-3.6 3.5-3.7 5.7-2zm-507.9 15c5.9 8 14.7 43.6 16.7 67.8.9 10 1.8 15.6 3 18 3.3 6.5 14.4 20.3 25.6 32 12.9 13.4 20.5 22.8 32.7 40.2 13.6 19.6 19.9 27.4 27.6 34.4 8.3 7.4 10.9 8.9 17.3 9.8 4 .6 4.9 1.1 5.4 3.2 1 3.7-2 6.4-7 6.4-13.1 0-30.3-16.9-58.1-57-7.1-10.3-17.5-22.7-24.5-29.5-2.9-2.8-8.5-8.9-12.6-13.7l-7.3-8.7-.5 4.2c-2 17-2.9 21.8-5.7 29.5-4 11.1-10.8 31.5-15.4 46.2-7.6 23.9-16.8 32.9-33 31.7-12-.8-17.7-3.7-28.1-14.1-14.8-14.9-20.6-26.9-29-60.6-5.1-20.2-5.8-44.2-1.9-63.5 3.7-18.5 8.6-31.1 15.1-39.2 10.2-12.5 34.9-23.2 57.4-24.9 8.9-.7 9-.7 9-3.3 0-4.3 2-10 3.8-11 3.5-2.1 7-1.2 9.5 2.1z"/><path d="M1392.8 234l-6.8 7.4v18.1c.2 149.8 2.2 435 3.1 439.5 2.5 12.1 8.7 19.1 19.8 22.5l2.4.7-2.1-2.7c-1.2-1.5-3.2-5.8-4.4-9.4-2.1-6.4-2.2-8.4-2.9-72.1-.4-36-.8-114.6-.9-174.5-.2-60-.6-137.8-.9-172.9l-.6-64-6.7 7.4zM1626.6 223.1l-6.8 4.1.7 314.2c.7 291.9.6 314.7-1 322-.9 4.4-2.7 10.8-4 14.3-1.3 3.5-2.3 6.3-2.1 6.3.2 0 2.2-2.8 4.4-6.3 5.3-8 11.6-21.3 14.4-30.2l2.3-7 .2-109.5c.2-60.2-.1-200.1-.5-310.7l-.7-201.3-6.9 4.1zM1522.6 283.2l-6.8 4 .7 168.7c.4 94.6 1.1 171.7 1.6 175.6 1.2 9 5 16.8 9.7 20 2.9 2 4.9 2.5 9.9 2.5 3.5 0 6.3-.2 6.3-.3 0-.2-1.8-2.2-4-4.5-2.7-2.9-4.6-6.3-6.1-10.9l-2.2-6.8-.9-134c-.4-73.7-.9-153-1-176.2l-.3-42.1-6.9 4zM1524.3 874.6l-6.3 3.5v7.9c0 9.5 2.7 19 7 24.2 2.9 3.6 13.5 9.7 14.6 8.5.4-.3-.3-1.9-1.5-3.6-3.8-5.3-6.1-17-6.1-31.3 0-7-.3-12.8-.7-12.8-.5 0-3.6 1.6-7 3.6zM1286.3 275.6l-6.3 3.5v67.1l2.3-1.4c1.2-.8 4.3-2.7 7-4.2l4.7-2.8v-32.9c0-18.1-.3-32.9-.7-32.9-.5 0-3.6 1.6-7 3.6zM1286.4 419.7l-6.1 3.6.4 140.1c.3 77 .8 163.8 1.1 192.9l.7 52.7 6.5-3.8 6.5-3.8-.3-140.9c-.3-151.3-1.1-244.5-2.1-244.5-.3.1-3.4 1.7-6.7 3.7zM1173.1 492.7c5.9 9.5 6.2 11.5 6.8 50.6l.6 35.7 6.5-3.8 6.5-3.8.3-25.9c.2-15.6-.2-28.5-.8-32.4-2-11.5-7.2-19-16-23-6.7-3-7.3-2.6-3.9 2.6zM1095.6 544.9c-5.6 9.3-10.8 21.1-13.3 30.1-1.6 5.7-1.8 11-1.8 43.5 0 32.9.2 37.8 1.9 44 2.4 9.1 8 19.9 12.2 23.3 1.8 1.5 18.5 10.6 36.9 20.2 21.3 11.1 35.1 18.8 37.5 21.1 4.4 4.3 8.3 12.1 10.8 21.6 1.5 6 1.7 12.2 1.7 51.8 0 44.1 0 45.2-2.3 53-1.3 4.4-3.2 9.9-4.2 12.2-1 2.4-1.7 4.3-1.5 4.3.2 0 2.2-2.6 4.3-5.8 5.5-8 11.5-20.2 14.8-30.2l2.9-8.5V783c-.1-40.8-.1-42.8-2.3-50.4-2.6-9.2-7-17.3-11.6-21.4-1.8-1.6-18.3-10.7-36.7-20.2-18.4-9.6-35-18.9-37.2-20.9-4.7-4.2-8.1-10.8-11-20.9-1.9-7.1-2.1-10.8-2.5-44.5-.4-38.9 0-44.3 4.2-58.8 1.3-4.6 2.3-8.5 2.2-8.6-.1-.2-2.4 3.3-5 7.6zM1087.3 823.7l-6.3 3.7v25.1c0 30.8.9 35.2 8.9 43.8 2.8 3.1 6.8 5.5 11.3 6.8l2.8.8-2.1-3.1c-1.2-1.6-3.1-5.8-4.2-9.1-1.9-5.7-2.1-9.1-2.5-39-.2-18-.7-32.7-1-32.7-.4 0-3.5 1.7-6.9 3.7zM787.3 563.8l-6.3 3.7v66.6l7-3.8 7-3.8v-33.3c0-18.2-.3-33.2-.7-33.1-.5 0-3.6 1.7-7 3.7zM553.4 562.9c-11 6.7-33.8 50.3-42.3 80.9l-2 7.3 2.2-.7c11.6-3.4 26.9-21.4 37.3-43.9 7.8-16.8 12.7-36.1 11-42.9-.8-3.1-2-3.2-6.2-.7zM982.9 602.1c6.7 9.7 6.3-.4 7.3 175.9.5 87.7.6 163.3.3 168-.6 9.6-3.3 22-6.4 29.5l-2.1 5 2.5-3c8.2-9.9 17.5-32.3 19.4-47 .8-5.7.9-51.8.3-158-1-165.4-.5-155.1-7.1-164.3-3.1-4.2-9.5-8.5-14.4-9.8l-2.8-.7 3 4.4zM951.9 609.2c-13.4 6.9-23.4 20.6-25.9 35.6-1.5 9.5.2 350.1 1.8 355.3 3 9.1 10.9 10.9 22.2 4.8 8-4.2 16.9-12.8 20.3-19.4 6.2-12.3 5.8-5.2 5.8-127-.1-144.9-1-236.7-2.3-242.7-2.2-10.3-10-12.6-21.9-6.6zM898.1 659.3c-6.1 10.1-10.5 20.2-13.3 30.6-2.1 7.6-2.1 8.2-1.9 150.6.2 78.6.7 146.2 1.1 150.1 1.6 12.6 6.1 19.8 15.2 24.3 3.4 1.7 6.3 2.9 6.5 2.7.2-.2-.5-1.9-1.6-3.7-3.6-6-5.2-12.2-6.1-22.9-.5-5.8-1-78.5-1.1-161.5-.3-163.2-.5-156 4.9-172 1.1-3.3 1.9-6.1 1.7-6.3-.1-.2-2.6 3.5-5.4 8.1zM788.2 707.8l-6.4 3.7.1 85.5c.1 103 1.3 300 1.8 300 .2 0 3.4-1.7 7-3.8l6.6-3.7-.7-104.9c-.3-57.7-.6-144.5-.6-192.8 0-48.3-.3-87.8-.7-87.8-.5 0-3.6 1.7-7.1 3.8zM679.8 771.3c5.5 5.9 5.6 7.2 7.1 87.5l.1 5.3 5.8-3.2c3.1-1.7 6.3-3.7 7-4.4 1.9-1.8.2-70.5-1.8-75-3.7-8.1-9.6-12.4-16.9-12.5h-3.4l2.1 2.3zM596.7 818.3l-6.9 4 .7 192.6c.4 105.9.9 192.7 1 192.9.2.2 3.3-1.4 6.9-3.4l6.6-3.8-.1-103.6c-.1-56.9-.5-143.8-.8-193l-.6-89.6-6.8 3.9zM490.3 879.8l-6.3 3.6v79.2c0 43.5.3 130.4.7 193.1l.6 114 7-4 7-4.1-.6-119.9c-.4-66-.7-152.8-.7-192.9 0-40-.3-72.8-.7-72.8-.5.1-3.6 1.7-7 3.8zM386.3 939.8l-6.3 3.7.1 79c.1 43.4.5 123.1.8 177 .7 91.7.9 98.4 2.6 103.9 3.5 11.1 12.2 17.1 21.6 15.1l3.1-.7-3.5-3.7c-4.6-4.7-7.4-11-8.6-19.7-.6-4.2-1.3-75.3-1.7-182.7-.3-96.6-.9-175.7-1.3-175.6-.3 0-3.4 1.7-6.8 3.7zM270.2 867.6c3.8 4.1 6.6 11 7.8 19 .5 3.9 1 29.5 1 58.1 0 28.2.3 51.3.6 51.3s3.5-1.6 7-3.6l6.4-3.6v-46.7c0-29.4-.4-48.9-1.1-52.6-2.5-13.4-9.5-21.2-21.5-24.1l-2.9-.7 2.7 2.9zM180.8 928.7c-5.3 8.1-10.8 19.2-14 28.3l-3.3 9.5.3 217c.2 135.2.7 219.4 1.3 223.4 1.8 11.9 8.1 20.3 17.6 23.5 4.3 1.5 5.6.9 2.8-1.4-2.4-2-5.4-11.4-6.4-20.2-1.5-12.6-2.6-452.4-1.2-461.1.6-3.7 2.2-10.2 3.6-14.5 1.3-4.2 2.3-7.8 2.1-7.9-.2-.2-1.4 1.4-2.8 3.4zM286.2 1245.8l-6.3 3.7.2 56.5.2 56.5-2.6 9.7c-1.4 5.3-3.5 11.7-4.6 14.2-1.1 2.5-1.8 4.6-1.6 4.6.6 0 10.3-15.6 13.2-21.5 4.4-8.6 8.2-21.3 9.1-30.3.9-8.9.3-97.2-.7-97.1-.3 0-3.4 1.7-6.9 3.7zM869.3 1099.5c-1.2.8-3.1 3-4.2 4.9-2.1 3.3-2.1 4.3-2.1 64.5 0 40.3.4 61.9 1 63.2 2.1 3.8 8.6 1.5 11.5-4.1 1.3-2.5 1.5-11.9 1.5-65.3 0-47.1-.3-62.6-1.2-63.5-1.6-1.6-3.9-1.5-6.5.3zM1551.5 1331c-16.6 2.7-26 13.3-35 39.8-11 32.2-13.2 43.9-12.2 65.9.5 12.3 4.1 32.6 7.8 43.7 3.5 10.5 10.1 22.7 15.7 28.7 6.1 6.6 17.5 12.8 28.5 15.5 8.6 2.2 11.5 1.3 14-4 2.3-4.7 5.1-24.8 7.2-51.1.9-11 2.1-23.6 2.6-28 .6-4.4 1.5-29.2 2-55 .6-25.9 1.1-48.3 1.2-49.9.2-2.7-.2-3.1-3.8-4.2-5.4-1.5-21.9-2.4-28-1.4zM1167.4 1512.5c-1.1 6.2-1.1 25.7-.1 30.7 1 4.6 2 4.8 3.7.7 1.5-3.5.7-20.7-1.4-30.4l-1.3-6-.9 5zM788.5 1383.6c-19.4 2.3-40.3 11.9-48.2 22.2-4.3 5.6-9 18.3-12 32.2-2.3 10.6-2.4 12.9-2 30 .5 16.2.9 19.9 3.5 30 8.1 31.6 13.2 42.7 25.7 55.8 7.7 8.2 11.6 10.6 19.4 12 9.3 1.7 15.5-1.2 19.8-9.5 3.9-7.3 7.7-17.2 9.1-24 .7-2.9 4.4-14.1 8.2-25 5.8-16.1 7.4-22 8.7-31.3 2.2-16.4 1.4-28.3-2.6-38.2-4.1-10.1-10.5-30.4-13.7-43.3-3.1-12.1-3.3-12.3-15.9-10.9z"/></svg>