<?xml version="1.0" standalone="no"?>
<!DOCTYPE svg PUBLIC "-//W3C//DTD SVG 20010904//EN"
 "http://www.w3.org/TR/2001/REC-SVG-20010904/DTD/svg10.dtd">
<svg version="1.0" xmlns="http://www.w3.org/2000/svg"
 width="788.000000pt" height="788.000000pt" viewBox="0 0 788.000000 788.000000"
 preserveAspectRatio="xMidYMid meet">
<metadata>
Created by potrace 1.14, written by Peter Selinger 2001-2017
</metadata>
<g transform="translate(0.000000,788.000000) scale(0.100000,-0.100000)"
fill="#000000" stroke="none">
<path d="M6540 7873 c-4 -10 -66 -78 -232 -257 l-37 -40 2 -288 c1 -158 -1
-289 -3 -290 -3 -2 -24 -16 -47 -31 -34 -22 -43 -33 -43 -56 0 -33 13 -35 54
-7 15 10 30 15 34 12 3 -4 7 -356 8 -784 2 -427 6 -806 9 -841 10 -105 59
-171 143 -190 82 -20 165 1 285 71 26 15 52 28 57 28 6 0 10 18 10 40 0 22 -2
40 -5 40 -3 0 -27 -14 -54 -31 -53 -32 -108 -45 -129 -31 -25 17 -29 74 -31
472 -1 223 -3 627 -4 898 -2 432 -1 494 13 506 8 7 54 35 102 62 82 46 87 51
88 82 0 17 -4 32 -9 32 -5 0 -47 -22 -94 -50 -47 -27 -89 -50 -94 -50 -4 0 -8
143 -8 318 0 300 -4 412 -15 385z m-125 -1389 c3 -632 7 -1173 10 -1203 4 -30
13 -67 21 -82 19 -38 18 -41 -8 -27 -53 30 -71 54 -84 113 -3 11 -7 529 -9
1151 l-5 1131 32 36 c18 20 34 34 36 33 2 -2 5 -521 7 -1152z"/>
<path d="M7690 7816 c-22 -11 -71 -39 -125 -73 -24 -14 -162 -93 -189 -108
-22 -11 -37 -56 -26 -75 6 -10 15 -8 38 9 17 11 34 21 39 21 10 0 11 -83 17
-1235 l3 -580 -23 -42 c-25 -43 -107 -122 -130 -124 -8 -1 -21 -1 -29 -1 -8 0
-19 0 -24 1 -29 4 -32 86 -34 995 -2 921 -2 926 -22 920 -11 -4 -22 -10 -25
-13 -3 -4 -21 -15 -40 -25 -19 -9 -91 -50 -160 -90 -110 -65 -125 -77 -131
-105 -4 -17 -3 -33 0 -36 4 -2 26 7 49 20 l42 24 1 -112 c0 -62 -1 -132 -2
-157 -1 -25 -1 -49 -1 -55 1 -5 3 -318 5 -695 3 -619 5 -690 21 -737 38 -113
115 -134 253 -67 82 39 176 113 213 167 14 20 28 37 31 37 3 0 5 -291 4 -647
-1 -717 1 -685 -66 -753 -59 -58 -120 -71 -148 -31 -16 22 -19 49 -20 176 -1
82 -3 150 -4 151 -3 3 -264 -150 -273 -159 -4 -4 -6 -29 -5 -55 l1 -49 -122
61 c-102 51 -177 80 -317 122 -14 4 8 24 57 52 43 24 577 335 622 361 39 24
44 32 45 64 1 20 0 37 -2 37 -3 0 -145 -82 -300 -174 -34 -20 -66 -36 -71 -36
-6 0 -12 -4 -14 -8 -1 -4 -57 -39 -123 -77 -347 -200 -336 -194 -359 -185 -12
4 -48 11 -79 15 -32 4 -59 10 -61 14 -2 3 208 130 467 280 578 336 546 315
544 352 -1 16 -5 30 -8 32 -3 1 -102 -54 -220 -122 -118 -68 -227 -131 -244
-140 -16 -9 -34 -20 -40 -24 -10 -8 -467 -275 -558 -326 -16 -9 -38 -21 -49
-27 -18 -11 -62 -10 -163 1 -16 2 -69 4 -117 4 -49 1 -88 4 -88 9 0 4 86 56
191 116 105 59 193 114 196 121 20 55 9 70 -33 45 -20 -11 -39 -20 -44 -20 -4
0 -9 222 -10 493 -3 1142 -6 1487 -13 1493 -4 4 -15 0 -24 -8 -16 -13 -75 -48
-153 -90 -14 -7 -62 -35 -107 -62 -78 -45 -83 -50 -83 -82 l0 -34 41 20 c23
12 43 19 46 16 3 -2 6 -435 8 -961 l3 -957 -44 -26 c-31 -19 -44 -33 -44 -49
0 -19 -6 -23 -32 -24 -55 -2 -132 -8 -151 -13 -21 -5 -22 -6 17 95 34 91 39
129 37 319 -2 221 -6 260 -39 325 -25 50 -55 71 -225 155 -172 86 -205 113
-228 183 -17 53 -22 436 -7 499 21 84 105 159 162 144 30 -7 50 -70 47 -146
-4 -78 -1 -292 3 -299 4 -5 3 -12 -2 -15 -8 -4 -5 -66 3 -66 9 0 171 95 177
104 4 6 8 7 8 2 0 -5 8 -2 18 6 9 9 30 22 46 30 l30 15 -1 144 c-1 218 -27
290 -121 335 -105 50 -314 -41 -459 -200 -45 -49 -142 -194 -148 -221 -1 -5
-7 -22 -13 -37 -33 -79 -43 -153 -43 -306 0 -188 6 -242 33 -303 26 -61 46
-79 148 -132 250 -129 266 -138 287 -169 31 -46 36 -74 40 -228 2 -74 4 -165
6 -202 l2 -67 -107 -35 c-59 -20 -111 -36 -115 -36 -5 0 -8 81 -7 180 0 99 -1
180 -3 180 -3 0 -67 -36 -143 -80 l-138 -80 3 -163 c1 -89 5 -169 9 -178 5
-11 -3 -24 -26 -41 -49 -37 -188 -179 -188 -191 0 -6 -2 -8 -5 -5 -4 3 4 34
16 69 l23 64 -1 675 c-1 764 -1 782 -16 830 -24 80 -93 132 -176 133 -41 0
-61 -3 -111 -15 -21 -5 -143 -70 -175 -93 -154 -112 -294 -319 -329 -486 -19
-90 -15 -1438 4 -1511 22 -83 91 -137 185 -143 57 -3 255 72 255 97 0 4 6 8
13 8 6 0 45 30 86 67 58 53 70 61 59 37 -69 -133 -141 -374 -162 -539 -3 -22
-8 -51 -11 -65 -16 -77 -20 -262 -20 -870 1 -597 5 -816 20 -963 3 -23 7 -69
10 -102 2 -33 7 -76 10 -95 2 -19 7 -57 11 -84 3 -27 8 -58 11 -70 2 -12 6
-30 8 -41 1 -11 8 -38 14 -60 6 -22 12 -49 14 -60 4 -21 25 -99 35 -125 3 -8
6 -19 7 -25 15 -58 132 -295 147 -295 4 0 8 -5 8 -11 0 -19 111 -140 173 -188
194 -152 464 -231 772 -226 83 2 159 5 170 8 11 2 38 8 60 12 22 5 45 9 50 11
6 2 19 5 30 7 50 12 187 71 259 112 150 85 309 223 455 391 179 209 403 599
579 1009 39 92 149 370 158 400 2 6 26 76 53 157 28 81 53 157 56 170 2 13 16
64 30 113 29 102 28 96 49 190 17 76 20 89 42 210 25 135 37 276 37 425 1 169
-16 327 -44 416 -5 17 -11 40 -13 50 -17 85 -97 251 -167 347 -27 37 -49 71
-49 75 0 4 12 9 27 10 35 3 139 51 199 93 144 99 270 281 315 457 19 76 20
105 15 1615 -2 846 -6 1540 -8 1542 -2 2 -15 -2 -28 -9z m-110 -303 c0 -87 1
-781 3 -1543 l2 -1385 -24 -73 c-13 -39 -28 -72 -33 -72 -4 0 -8 -5 -8 -11 0
-5 -12 -27 -26 -47 -15 -20 -23 -28 -19 -17 4 11 15 38 23 60 16 42 17 254 12
2527 -1 373 2 683 5 689 7 10 41 27 58 28 4 1 7 -70 7 -156z m-516 -1019 c3
-788 5 -883 20 -918 9 -21 24 -45 34 -52 9 -7 15 -14 12 -14 -38 -9 -54 -8
-71 0 -23 13 -47 48 -56 81 -3 13 -8 411 -10 885 l-4 861 32 21 c19 11 35 19
37 18 2 -2 4 -399 6 -882z m-1177 -763 l3 -959 -32 -20 c-18 -12 -34 -19 -37
-17 -2 2 -5 436 -7 964 l-4 959 33 20 c17 10 34 17 36 16 2 -2 6 -435 8 -963z
m-571 583 c25 -17 53 -60 59 -94 5 -25 7 -100 6 -211 l-1 -95 -35 -17 -35 -17
-1 163 c0 89 -2 171 -4 181 -9 49 -18 72 -32 89 -15 15 -15 17 1 17 9 0 28 -7
42 -16z m-410 -262 c-21 -60 -27 -117 -26 -267 1 -230 11 -291 54 -343 14 -15
66 -50 118 -77 147 -76 238 -125 258 -137 30 -19 57 -75 77 -158 2 -8 4 -100
5 -205 1 -158 -1 -200 -16 -247 -17 -54 -37 -75 -57 -62 -5 3 -7 10 -3 15 8
13 7 296 -1 308 -3 5 -1 12 5 16 6 4 9 9 6 13 -2 4 -7 32 -10 62 -10 79 -25
125 -55 159 -15 17 -96 66 -191 115 -90 46 -176 94 -190 106 -27 22 -55 86
-65 150 -12 67 -8 344 5 390 21 79 80 200 96 200 2 0 -3 -17 -10 -38z m-516
-309 c11 -14 24 -42 30 -62 16 -59 19 -1523 3 -1592 -14 -64 -53 -151 -84
-189 -19 -24 -20 -24 -9 -2 6 13 13 33 16 45 2 12 7 36 10 52 6 29 6 716 0
1400 -2 306 -3 322 -24 357 l-21 37 30 -11 c16 -5 38 -21 49 -35z m-120 -25
c18 -30 19 -58 20 -622 4 -1289 6 -1175 -20 -1229 -26 -54 -87 -111 -137 -128
-28 -9 -38 -8 -58 5 -14 9 -26 22 -26 29 -1 6 -3 23 -5 37 -3 14 -4 32 -4 40
2 159 1 283 -4 287 -2 3 -1 15 4 27 4 13 5 29 0 36 -4 7 -5 22 -1 34 5 11 4
36 0 56 -5 21 -4 36 2 38 5 2 6 8 3 14 -4 5 -7 282 -8 614 l-1 603 22 48 c29
59 65 97 117 123 56 27 73 25 96 -12z m-359 -268 c-17 -60 -18 -124 -15 -845
1 -429 5 -798 8 -819 4 -22 13 -53 21 -69 13 -27 13 -28 -8 -21 -32 10 -46 23
-69 68 -21 40 -21 52 -24 776 -3 796 -3 788 52 894 31 58 47 86 50 83 2 -1 -5
-31 -15 -67z m974 -911 l0 -142 -27 -20 c-15 -11 -31 -18 -35 -14 -3 4 -8 68
-10 142 l-4 135 25 10 c13 5 27 14 31 19 16 27 20 1 20 -130z m2186 -176 c1
-32 1 -63 0 -70 -1 -6 7 -34 18 -62 10 -28 17 -51 14 -51 -3 0 -22 14 -43 30
-40 32 -59 71 -64 134 -2 31 2 39 28 56 17 11 34 20 39 20 4 0 8 -26 8 -57z"/>
<path d="M5925 7517 c-50 -29 -101 -58 -115 -65 -52 -27 -69 -47 -70 -82 -1
-19 -2 -127 -1 -239 l1 -203 25 16 c13 9 46 28 72 43 26 14 79 45 117 67 l70
41 -1 233 c-1 128 -3 235 -5 237 -2 2 -44 -19 -93 -48z m-43 -370 c-3 -63 -6
-68 -32 -82 -16 -8 -33 -15 -37 -15 -6 0 -9 237 -4 317 1 6 16 20 34 30 l32
19 5 -100 c3 -56 4 -131 2 -169z"/>
<path d="M1840 6870 c-97 -56 -116 -71 -118 -93 -4 -31 4 -33 36 -11 l22 15
-2 -1023 -3 -1023 -23 -10 c-13 -5 -25 -20 -29 -33 -12 -48 -3 -45 187 66 97
57 115 72 118 95 4 31 0 33 -33 11 -25 -16 -25 -16 -26 12 -4 188 0 1397 5
1419 9 36 77 105 104 105 47 0 46 14 46 -771 0 -406 2 -739 5 -739 2 0 58 30
123 67 105 60 118 70 118 95 0 26 -1 26 -27 13 l-28 -15 -5 693 c-5 724 -5
713 -47 756 -42 42 -166 -2 -243 -85 -22 -24 -43 -45 -47 -46 -4 -2 -6 124 -6
280 0 155 -2 284 -6 286 -3 1 -58 -27 -121 -64z m34 -1065 c0 -973 -1 -1008
-19 -1021 -11 -8 -21 -10 -24 -5 -4 5 -6 462 -6 1016 0 984 1 1007 19 1021 11
8 22 10 25 5 3 -5 6 -462 5 -1016z m316 615 c11 -11 21 -28 21 -37 1 -10 2
-327 3 -704 2 -663 1 -687 -17 -699 -10 -6 -21 -10 -23 -8 -2 2 -5 323 -7 714
-1 390 -6 719 -11 732 -11 28 7 29 34 2z"/>
<path d="M2800 6873 c-38 -13 -103 -45 -123 -61 -40 -31 -126 -124 -132 -143
-4 -11 -11 -19 -16 -19 -5 0 -8 -3 -7 -7 1 -5 -9 -30 -23 -58 -54 -105 -54
-106 -54 -725 0 -562 0 -576 21 -610 11 -19 36 -46 55 -58 104 -72 297 48 401
248 48 92 62 157 63 302 l1 128 -40 -24 c-23 -13 -59 -34 -81 -46 -68 -37 -66
-29 -67 -231 -1 -193 -7 -231 -49 -276 -12 -12 -35 -27 -51 -34 -28 -11 -33
-11 -49 10 -18 22 -19 47 -19 351 l0 327 95 57 c52 31 99 56 105 56 5 0 10 3
10 8 0 4 13 13 28 19 15 7 48 26 73 42 l46 29 -1 298 c-2 285 -3 301 -23 340
-12 23 -32 48 -45 56 -26 17 -94 29 -118 21z m73 -111 c17 -28 18 -60 19 -317
1 -270 0 -286 -18 -299 -10 -8 -21 -12 -24 -10 -2 3 -5 143 -5 312 -1 267 -3
311 -18 341 l-17 33 23 -15 c12 -8 30 -28 40 -45z m-84 4 c5 -11 9 -166 9
-343 l1 -322 -79 -46 c-44 -25 -82 -45 -85 -45 -3 0 -5 150 -3 333 3 373 6
386 77 431 40 26 69 23 80 -8z m-241 -183 c-16 -58 -15 -1291 1 -1322 18 -33
6 -37 -23 -8 -15 15 -27 41 -31 68 -3 24 -5 303 -3 619 3 525 5 578 20 605 10
17 18 35 18 41 0 8 19 34 26 34 1 0 -2 -17 -8 -37z m343 -945 c-1 -62 -3 -120
-5 -128 -9 -43 -21 -76 -43 -118 -13 -26 -21 -37 -18 -26 13 51 17 97 18 229
2 129 4 141 22 151 11 6 22 9 24 8 2 -2 3 -54 2 -116z"/>
<path d="M1619 6742 c-13 -10 -31 -21 -39 -24 -8 -3 -154 -87 -325 -186 l-310
-179 0 -313 c0 -171 2 -315 5 -320 5 -7 141 67 163 89 6 6 10 120 10 300 l0
289 38 25 c21 14 40 22 43 19 3 -3 6 -461 6 -1018 l0 -1013 -30 -16 c-23 -12
-30 -22 -30 -45 l0 -29 153 88 c130 75 152 92 155 114 4 31 -12 35 -39 11 -17
-15 -18 30 -16 1006 l2 1022 41 24 40 24 1 -286 c0 -157 4 -288 7 -292 4 -3
15 -1 24 5 9 7 46 29 82 50 l65 38 0 314 c0 216 -3 315 -11 318 -6 2 -22 -5
-35 -15z m-38 -89 c0 -5 1 -122 1 -262 1 -235 -1 -255 -17 -268 -11 -7 -21
-13 -25 -13 -3 0 -5 118 -5 263 0 222 2 264 15 274 17 14 30 16 31 6z m-276
-1169 c0 -993 -1 -1016 -19 -1030 -11 -8 -22 -14 -25 -14 -3 0 -6 457 -6 1016
0 990 1 1016 20 1030 10 8 21 14 24 14 4 0 6 -457 6 -1016z m-264 754 c-2
-100 -2 -123 -1 -236 0 -40 -1 -76 -1 -80 -1 -4 0 -10 1 -14 2 -8 2 -69 1 -88
-1 -5 -8 -10 -16 -10 -8 0 -15 -5 -15 -11 0 -5 -4 -8 -8 -5 -5 3 -9 121 -8
263 1 215 4 261 16 275 25 27 33 4 31 -94z"/>
<path d="M3390 6055 c-69 -40 -130 -77 -135 -82 -7 -6 -10 -95 -9 -244 1 -129
2 -235 3 -236 1 -1 52 28 114 64 61 37 124 73 140 80 l27 14 -2 240 c0 131 -4
239 -7 238 -3 0 -62 -34 -131 -74z m-4 -247 l1 -163 -29 -17 c-16 -10 -32 -18
-36 -18 -4 0 -7 73 -8 163 l0 162 25 17 c14 10 31 18 36 18 7 0 11 -57 11
-162z"/>
<path d="M3500 5396 c-14 -7 -64 -36 -112 -64 -48 -29 -90 -52 -93 -52 -4 0
-26 -13 -50 -30 -24 -16 -48 -30 -53 -30 -23 0 -51 -73 -33 -85 4 -2 25 7 48
19 l41 23 2 -611 c1 -336 3 -764 4 -951 1 -187 0 -347 -2 -355 -2 -9 -23 -28
-46 -42 -36 -22 -43 -30 -41 -54 5 -49 5 -50 13 -38 4 6 32 24 62 41 30 16 74
42 97 56 24 15 45 27 47 27 3 0 39 20 79 45 41 25 80 45 86 45 6 0 11 4 11 8
0 5 16 16 35 25 30 14 35 21 35 52 0 19 -3 35 -8 35 -4 0 -24 -11 -45 -25
l-37 -26 -1 28 c0 15 -2 464 -4 997 -3 533 -6 970 -8 972 -1 2 -14 -3 -27 -10z
m-110 -533 c1 -214 2 -646 4 -961 l2 -572 -22 -15 c-12 -8 -28 -16 -35 -17
-13 -3 -13 -43 -20 1416 l-3 498 25 19 c50 39 49 46 49 -368z"/>
<path d="M2878 5040 c-16 -5 -28 -5 -28 -2 0 4 -4 3 -8 -3 -4 -5 -32 -23 -64
-39 -60 -31 -152 -112 -184 -161 l-19 -29 -5 26 -5 26 -80 -47 c-44 -26 -100
-59 -125 -73 -165 -93 -166 -94 -162 -132 l4 -35 39 26 c22 14 41 24 44 21 2
-2 6 -436 8 -964 l4 -961 -47 -26 c-39 -22 -46 -31 -45 -54 1 -15 4 -29 8 -31
9 -3 53 19 142 73 39 23 102 59 140 80 39 20 77 43 85 49 8 7 32 20 52 31 36
19 50 46 39 78 -6 15 -11 14 -44 -9 -21 -14 -41 -24 -44 -21 -2 3 -6 425 -8
938 l-4 933 37 52 c65 93 141 116 156 46 4 -15 7 -130 8 -255 1 -143 5 -227
11 -227 6 0 53 25 104 55 52 30 98 55 104 55 5 0 9 3 9 8 0 4 13 13 28 20 l29
12 -2 193 c-2 194 -4 214 -31 277 -26 60 -85 88 -146 70z m-11 -125 c36 -25
45 -76 47 -255 l2 -168 -34 -16 c-18 -9 -34 -16 -36 -16 -2 0 -4 62 -5 138 0
240 -2 259 -21 296 -18 36 -18 36 4 36 12 0 31 -7 43 -15z m-436 -322 c7
-1131 5 -1823 -4 -1823 -6 0 -21 -10 -34 -22 -22 -20 -23 -21 -24 -2 -1 26 -9
1637 -8 1684 0 8 -1 52 -2 96 -1 45 1 87 5 93 4 6 3 11 -2 11 -19 0 1 41 27
55 14 8 29 14 34 15 4 0 7 -48 8 -107z"/>
<path d="M2018 4543 c-1 -5 -19 -16 -38 -25 -43 -22 -113 -62 -162 -94 -21
-13 -40 -24 -43 -24 -2 0 -27 -14 -54 -30 -31 -20 -50 -39 -53 -55 -8 -41 5
-49 43 -26 19 12 37 21 40 21 3 0 6 -114 6 -254 0 -140 3 -259 7 -264 3 -6 2
-13 -3 -17 -7 -4 -7 -15 -1 -30 6 -16 6 -25 0 -25 -6 0 -6 -9 0 -25 6 -15 6
-26 -1 -30 -5 -4 -7 -11 -3 -17 9 -14 9 -142 0 -156 -4 -7 -4 -12 1 -12 4 0 8
-233 8 -518 0 -515 0 -517 -22 -553 -28 -44 -92 -104 -124 -115 -42 -14 -49
-13 -68 7 -23 25 -21 -30 -26 1054 -2 484 -4 883 -4 887 -1 9 -41 -3 -41 -13
0 -5 -4 -9 -10 -9 -5 0 -64 -32 -132 -72 -68 -39 -136 -79 -153 -88 -23 -13
-31 -25 -33 -52 -3 -32 -1 -36 17 -31 12 3 21 10 21 16 0 6 3 7 7 4 3 -4 15 0
25 10 17 16 18 9 18 -208 2 -831 10 -1529 18 -1562 24 -94 92 -137 182 -115
33 8 140 61 140 69 0 5 7 9 15 9 8 0 15 5 15 10 0 6 5 10 12 10 13 0 128 117
128 131 0 6 5 7 11 4 6 -4 8 -14 5 -22 -9 -22 7 -14 166 78 76 43 142 79 148
79 5 0 10 4 10 8 0 5 11 14 25 20 18 8 25 19 25 40 0 40 -7 43 -43 21 -18 -10
-36 -19 -42 -19 -7 0 -10 338 -10 995 0 751 -3 995 -12 995 -6 0 -13 -3 -15
-7z m-118 -160 c0 -5 2 -437 4 -960 l3 -953 -23 -15 c-12 -8 -28 -16 -35 -17
-14 -3 -15 92 -20 1302 l-2 615 29 17 c31 19 44 22 44 11z m-515 -1170 c2
-483 6 -894 8 -915 5 -38 35 -98 50 -98 4 0 6 -4 2 -9 -7 -13 -63 -5 -83 11
-43 36 -45 60 -48 558 -3 421 -5 1237 -4 1282 0 15 60 62 68 53 2 -2 5 -398 7
-882z"/>
<path d="M735 4515 c-235 -53 -509 -346 -570 -609 -14 -60 -15 -185 -11 -1119
3 -579 8 -1065 11 -1081 22 -108 107 -164 233 -153 232 19 522 296 610 582 12
39 16 111 18 318 2 147 -1 267 -5 267 -6 0 -262 -143 -280 -156 -2 -2 -4 -160
-5 -351 -1 -342 -1 -349 -24 -391 -21 -40 -60 -85 -108 -125 -11 -9 -39 -20
-60 -23 -33 -4 -44 -1 -65 19 -33 30 -30 -82 -32 1347 l-2 1165 27 50 c69 126
174 180 233 120 l25 -24 0 -238 c1 -356 4 -428 15 -424 6 1 42 21 80 43 39 23
83 48 100 57 16 9 45 26 64 39 l35 23 -1 231 c-1 128 -4 252 -8 277 -7 45 -32
91 -68 123 -42 38 -131 52 -212 33z m73 -85 c60 -37 65 -66 67 -342 1 -136 -1
-251 -4 -256 -7 -10 -46 -32 -58 -32 -4 0 -8 123 -9 273 -1 276 -7 328 -41
362 -22 23 5 19 45 -5z m-491 -321 c-8 -19 -13 -42 -11 -51 1 -10 -1 -20 -5
-22 -6 -4 -6 -675 2 -1901 2 -433 3 -441 24 -478 12 -20 20 -37 17 -37 -20 0
-74 35 -79 51 -4 10 -10 19 -14 19 -4 0 -8 6 -9 13 0 6 -3 26 -6 42 -10 50
-13 2154 -4 2199 12 58 11 56 39 111 32 63 52 95 57 91 2 -2 -3 -19 -11 -37z
m567 -1786 c1 -256 -4 -296 -51 -393 -24 -50 -63 -110 -63 -98 0 3 7 22 15 42
8 20 13 36 10 36 -2 0 0 12 6 27 6 17 10 138 10 309 l-1 282 32 20 c18 12 34
19 37 17 2 -3 5 -112 5 -242z"/>
<path d="M3860 3172 c-42 -24 -126 -102 -160 -147 -27 -36 -67 -119 -85 -174
-20 -61 -23 -96 -24 -259 -1 -111 -1 -112 -28 -130 -31 -19 -47 -70 -19 -58 9
3 23 9 31 12 12 5 15 -2 15 -27 1 -19 1 -340 1 -714 -1 -623 -2 -681 -17 -692
-9 -7 -21 -14 -27 -16 -9 -3 -20 -57 -10 -57 2 0 69 37 149 83 132 75 144 84
144 111 0 28 0 28 -25 12 -13 -9 -26 -16 -28 -16 -2 0 -3 322 -3 716 l1 715
30 17 c17 9 32 20 33 25 2 4 9 7 16 7 7 0 12 11 12 25 0 30 -11 31 -51 5 -16
-11 -33 -20 -36 -20 -3 0 -5 96 -5 213 2 201 3 214 24 252 15 26 39 49 68 64
36 20 44 29 44 52 0 16 -1 29 -2 28 -2 -1 -23 -13 -48 -27z m-166 -239 c-4
-16 -9 -445 -9 -954 -1 -509 -5 -931 -9 -937 -4 -7 -15 -12 -24 -12 -16 0 -17
61 -16 892 0 491 4 904 8 918 13 41 48 120 53 120 3 0 2 -12 -3 -27z"/>
<path d="M3095 2834 c-115 -69 -219 -129 -230 -134 -11 -6 -36 -20 -55 -31
-40 -24 -473 -277 -600 -350 -47 -27 -92 -54 -100 -59 -22 -13 -168 -98 -219
-128 -25 -13 -68 -38 -95 -55 -28 -16 -64 -38 -81 -47 -16 -10 -86 -50 -155
-90 -69 -40 -189 -110 -268 -156 -79 -46 -147 -84 -152 -84 -6 0 -10 -4 -10
-10 0 -5 -4 -10 -9 -10 -7 0 -31 -13 -119 -65 -10 -5 -53 -31 -97 -56 -44 -26
-147 -86 -230 -134 -253 -148 -339 -198 -369 -214 -17 -9 -35 -20 -40 -24 -6
-5 -35 -22 -63 -38 -49 -27 -53 -32 -53 -65 0 -43 -2 -44 116 26 46 27 89 50
93 50 5 0 11 4 13 8 2 4 26 21 53 36 88 49 125 71 400 231 149 87 283 165 300
174 16 9 32 19 35 22 3 3 17 12 32 20 15 8 57 32 95 53 37 22 82 47 98 56 17
10 200 117 409 239 208 121 382 221 387 221 5 0 9 4 9 8 0 4 15 15 33 23 17 9
88 48 157 89 68 40 138 81 155 90 16 9 104 61 193 114 90 53 166 96 168 96 2
0 27 15 56 33 29 19 60 37 68 40 8 4 78 44 155 90 139 82 140 83 141 120 1 20
-1 37 -5 36 -3 0 -100 -57 -216 -125z"/>
<path d="M3241 2699 c-41 -23 -81 -47 -89 -55 -7 -8 -18 -12 -23 -9 -5 4 -9 3
-9 -2 0 -4 -10 -13 -23 -19 -12 -6 -143 -82 -292 -169 -148 -87 -290 -169
-315 -183 -25 -14 -61 -35 -80 -47 -19 -12 -42 -25 -50 -28 -8 -4 -28 -16 -45
-27 -16 -11 -39 -24 -50 -30 -11 -5 -47 -25 -80 -45 -33 -19 -75 -43 -92 -52
-18 -9 -33 -20 -33 -25 0 -4 -5 -8 -10 -8 -6 0 -40 -18 -76 -40 -36 -22 -68
-40 -70 -40 -4 0 -127 -72 -154 -91 -8 -5 -27 -15 -42 -22 -16 -6 -28 -15 -28
-19 0 -4 -4 -8 -9 -8 -6 0 -157 -86 -338 -192 -180 -105 -348 -202 -373 -216
-25 -13 -52 -31 -61 -38 -8 -8 -18 -14 -22 -14 -3 0 -30 -14 -59 -31 -29 -18
-66 -40 -83 -49 -16 -9 -86 -50 -155 -90 -68 -40 -138 -81 -155 -90 -16 -10
-84 -49 -150 -88 -115 -67 -120 -71 -123 -106 -2 -20 0 -36 4 -36 4 0 82 44
173 97 91 53 175 101 186 108 11 6 39 23 62 38 24 15 45 27 47 27 2 0 50 27
106 60 56 33 106 60 111 60 5 0 9 5 9 10 0 6 4 10 8 10 5 0 179 99 386 220
208 121 382 220 387 220 5 0 9 5 9 10 0 6 4 10 10 10 5 0 38 18 74 39 35 22
95 56 132 77 38 20 76 43 85 50 8 8 18 14 21 14 3 0 36 18 72 40 36 22 70 40
76 40 5 0 10 5 10 10 0 6 4 10 9 10 5 0 72 37 150 83 78 45 156 90 174 101 18
10 185 107 372 216 544 316 490 280 491 323 1 20 1 37 0 37 0 0 -34 -19 -75
-41z"/>
<path d="M3245 2288 c-89 -24 -216 -147 -267 -258 -46 -100 -51 -131 -57 -315
-1 -26 -2 -384 -1 -425 0 -8 0 -62 0 -120 -1 -58 -1 -109 -1 -115 1 -5 1 -64
2 -130 1 -147 17 -212 63 -246 43 -33 114 -32 180 0 77 38 176 143 219 231 63
128 63 137 63 730 -1 513 -2 537 -21 574 -36 72 -96 96 -180 74z m95 -104 c12
-24 14 -121 15 -594 1 -595 -1 -635 -45 -720 -26 -51 -33 -51 -15 0 21 60 21
1286 0 1337 l-15 35 23 -14 c12 -8 29 -28 37 -44z m-85 0 c6 -19 10 -276 10
-686 -1 -532 -3 -659 -14 -672 -7 -9 -10 -16 -5 -16 4 0 -7 -15 -25 -34 -43
-45 -80 -54 -102 -28 -14 18 -16 87 -16 679 0 454 3 667 11 688 14 39 35 67
66 88 36 25 63 18 75 -19z m-234 -169 c-6 -23 -10 -259 -10 -638 1 -484 3
-608 14 -634 15 -35 10 -40 -17 -19 -42 31 -44 65 -43 636 1 300 5 556 9 570
15 52 49 131 53 126 2 -2 0 -21 -6 -41z"/>
</g>
</svg>
